<svg width="288" height="51" viewBox="0 0 288 51" fill="none" xmlns="http://www.w3.org/2000/svg">
<path d="M29.8861 35.752C28.5741 37.032 27.1021 37.672 25.4701 37.672C23.9021 37.672 22.6381 37.224 21.6781 36.328C20.7181 35.432 19.7741 34.008 18.8461 32.056L15.1981 24.328C14.9101 23.688 14.5421 23.224 14.0941 22.936C13.6781 22.648 12.9581 22.312 11.9341 21.928C11.3261 21.704 11.0221 21.336 11.0221 20.824C11.0221 20.504 11.0861 20.232 11.2141 20.008C11.3421 19.784 11.5341 19.672 11.7901 19.672C11.9181 19.672 12.1741 19.736 12.5581 19.864C12.9741 19.96 13.5021 20.008 14.1421 20.008C16.5421 20.008 18.4141 19.336 19.7581 17.992C21.1021 16.616 21.7741 14.792 21.7741 12.52C21.7741 10.184 21.0541 8.28 19.6141 6.808C18.2061 5.304 16.2061 4.552 13.6141 4.552C11.1821 4.552 9.96613 5.288 9.96613 6.76V27.352C9.96613 29.272 10.1261 30.824 10.4461 32.008C10.7661 33.16 11.3261 34.28 12.1261 35.368L12.7501 36.232L12.1261 37H1.61413L1.03813 35.368L2.14213 35.08C3.35813 34.76 4.17413 34.296 4.59013 33.688C5.00613 33.08 5.21413 32.056 5.21413 30.616V6.904C5.21413 6.488 5.13413 6.2 4.97413 6.04C4.81413 5.848 4.54213 5.752 4.15813 5.752H1.37413L0.798125 3.976C2.17413 3.432 3.98213 2.952 6.22213 2.536C8.49413 2.088 10.6701 1.864 12.7501 1.864C17.4861 1.864 21.0061 2.84 23.3101 4.792C25.6141 6.744 26.7661 9.272 26.7661 12.376C26.7661 14.744 26.1101 16.808 24.7981 18.568C23.4861 20.328 21.5501 21.512 18.9901 22.12C19.6941 22.6 20.3341 23.384 20.9101 24.472L25.3741 33.544C25.8861 34.536 26.4941 35.032 27.1981 35.032C27.8061 35.032 28.4301 34.808 29.0701 34.36L29.8861 35.752ZM41.6293 30.616C41.6293 31.64 41.7093 32.408 41.8693 32.92C42.0293 33.432 42.3173 33.784 42.7333 33.976C43.1813 34.168 43.8373 34.264 44.7013 34.264H49.8853C51.0373 34.264 51.9333 34.152 52.5733 33.928C53.2133 33.672 53.7093 33.256 54.0613 32.68C54.4453 32.072 54.7973 31.176 55.1173 29.992L55.4053 28.888L57.0373 29.464V37.672L56.0773 38.2L55.6933 37.672C55.3413 37.224 54.6693 37 53.6773 37H33.4693L32.9413 35.464L33.9492 35.176C35.1333 34.824 35.9173 34.376 36.3013 33.832C36.6853 33.288 36.8773 32.328 36.8773 30.952V12.184C36.8773 10.264 36.7173 8.712 36.3973 7.528C36.0773 6.344 35.5173 5.224 34.7173 4.168L34.0933 3.304L34.7173 2.536H49.4053C52.1573 2.536 53.9813 2.2 54.8773 1.528L55.7413 0.903998L56.5093 1.528V10.072L54.8773 10.648L54.5893 9.544C54.2693 8.36 53.9173 7.48 53.5333 6.904C53.1813 6.296 52.6853 5.88 52.0453 5.656C51.4053 5.4 50.5093 5.272 49.3573 5.272H44.7013C43.8373 5.272 43.1813 5.368 42.7333 5.56C42.3173 5.752 42.0293 6.104 41.8693 6.616C41.7093 7.128 41.6293 7.896 41.6293 8.92V18.136H47.7253C48.4933 18.136 49.1653 17.976 49.7413 17.656C50.3493 17.304 50.9413 16.728 51.5173 15.928L51.9013 15.4L52.8613 15.928V24.136L51.2293 24.712L50.9413 23.608C50.6533 22.52 50.1413 21.8 49.4053 21.448C48.7013 21.064 47.4693 20.872 45.7093 20.872H41.6293V30.616ZM85.7581 9.544C85.4381 8.36 85.0861 7.48 84.7021 6.904C84.3501 6.296 83.8541 5.88 83.2141 5.656C82.5741 5.4 81.6781 5.272 80.5261 5.272H78.3661C77.6941 5.272 77.2461 5.512 77.0221 5.992C76.8301 6.44 76.7341 7.416 76.7341 8.92V30.616C76.7341 32.088 76.9421 33.112 77.3581 33.688C77.7741 34.264 78.5901 34.728 79.8061 35.08L80.9101 35.368L80.3341 37H69.8221L69.1981 36.232L69.8221 35.368C70.6221 34.312 71.1821 33.192 71.5021 32.008C71.8221 30.824 71.9821 29.272 71.9821 27.352V8.92C71.9821 7.416 71.8701 6.44 71.6461 5.992C71.4541 5.512 71.0221 5.272 70.3501 5.272H68.1901C67.0381 5.272 66.1421 5.4 65.5021 5.656C64.8621 5.88 64.3501 6.296 63.9661 6.904C63.6141 7.48 63.2781 8.36 62.9581 9.544L62.6701 10.648L61.0381 10.072V1.528L61.8061 0.903998L62.6701 1.528C63.5661 2.2 65.3901 2.536 68.1421 2.536H80.5741C83.3261 2.536 85.1501 2.2 86.0461 1.528L86.9101 0.903998L87.6781 1.528V10.072L86.0461 10.648L85.7581 9.544ZM118.433 35.752C117.121 37.032 115.649 37.672 114.017 37.672C112.449 37.672 111.185 37.224 110.225 36.328C109.265 35.432 108.321 34.008 107.393 32.056L103.745 24.328C103.457 23.688 103.089 23.224 102.641 22.936C102.225 22.648 101.505 22.312 100.481 21.928C99.873 21.704 99.569 21.336 99.569 20.824C99.569 20.504 99.633 20.232 99.761 20.008C99.889 19.784 100.081 19.672 100.337 19.672C100.465 19.672 100.721 19.736 101.105 19.864C101.521 19.96 102.049 20.008 102.689 20.008C105.089 20.008 106.961 19.336 108.305 17.992C109.649 16.616 110.321 14.792 110.321 12.52C110.321 10.184 109.601 8.28 108.161 6.808C106.753 5.304 104.753 4.552 102.161 4.552C99.729 4.552 98.513 5.288 98.513 6.76V27.352C98.513 29.272 98.673 30.824 98.993 32.008C99.313 33.16 99.873 34.28 100.673 35.368L101.297 36.232L100.673 37H90.161L89.585 35.368L90.689 35.08C91.905 34.76 92.721 34.296 93.137 33.688C93.553 33.08 93.761 32.056 93.761 30.616V6.904C93.761 6.488 93.681 6.2 93.521 6.04C93.361 5.848 93.089 5.752 92.705 5.752H89.921L89.345 3.976C90.721 3.432 92.529 2.952 94.769 2.536C97.041 2.088 99.217 1.864 101.297 1.864C106.033 1.864 109.553 2.84 111.857 4.792C114.161 6.744 115.313 9.272 115.313 12.376C115.313 14.744 114.657 16.808 113.345 18.568C112.033 20.328 110.097 21.512 107.537 22.12C108.241 22.6 108.881 23.384 109.457 24.472L113.921 33.544C114.433 34.536 115.041 35.032 115.745 35.032C116.353 35.032 116.977 34.808 117.617 34.36L118.433 35.752ZM121.008 19.816C121.008 16.424 121.6 13.384 122.784 10.696C123.968 7.976 125.744 5.832 128.112 4.264C130.512 2.664 133.44 1.864 136.896 1.864C140.352 1.864 143.264 2.664 145.632 4.264C148.032 5.832 149.824 7.976 151.008 10.696C152.224 13.384 152.832 16.424 152.832 19.816C152.832 23.208 152.224 26.248 151.008 28.936C149.824 31.624 148.032 33.752 145.632 35.32C143.264 36.888 140.352 37.672 136.896 37.672C133.44 37.672 130.512 36.888 128.112 35.32C125.744 33.752 123.968 31.624 122.784 28.936C121.6 26.248 121.008 23.208 121.008 19.816ZM147.6 19.96C147.6 17.656 147.264 15.336 146.592 13C145.952 10.632 144.848 8.648 143.28 7.048C141.712 5.416 139.664 4.6 137.136 4.6C134.864 4.6 132.896 5.304 131.232 6.712C129.6 8.088 128.352 9.96 127.488 12.328C126.624 14.696 126.192 17.32 126.192 20.2C126.192 22.984 126.592 25.48 127.392 27.688C128.192 29.896 129.376 31.64 130.944 32.92C132.544 34.2 134.464 34.84 136.704 34.84C138.944 34.84 140.88 34.184 142.512 32.872C144.176 31.56 145.44 29.784 146.304 27.544C147.168 25.272 147.6 22.744 147.6 19.96ZM165.379 27.352C165.379 29.304 165.539 30.872 165.859 32.056C166.179 33.208 166.739 34.312 167.539 35.368L168.163 36.232L167.539 37H157.027L156.451 35.368L157.555 35.08C158.771 34.76 159.587 34.296 160.003 33.688C160.419 33.08 160.627 32.056 160.627 30.616V6.904C160.627 6.488 160.547 6.2 160.387 6.04C160.227 5.848 159.955 5.752 159.571 5.752H156.787L156.211 3.976C157.587 3.432 159.395 2.952 161.635 2.536C163.907 2.088 166.083 1.864 168.163 1.864C172.899 1.864 176.419 2.936 178.723 5.08C181.027 7.192 182.179 9.928 182.179 13.288C182.179 15.368 181.763 17.256 180.931 18.952C180.099 20.616 178.819 21.96 177.091 22.984C175.363 23.976 173.219 24.472 170.659 24.472C169.475 24.472 168.467 24.328 167.635 24.04C166.835 23.752 166.435 23.336 166.435 22.792C166.435 22.472 166.499 22.2 166.627 21.976C166.755 21.752 166.947 21.64 167.203 21.64C167.331 21.64 167.587 21.704 167.971 21.832C168.387 21.928 168.915 21.976 169.555 21.976C171.955 21.976 173.827 21.208 175.171 19.672C176.515 18.136 177.187 16.056 177.187 13.432C177.187 10.84 176.467 8.712 175.027 7.048C173.619 5.384 171.619 4.552 169.027 4.552C166.595 4.552 165.379 5.288 165.379 6.76V27.352ZM184.805 19.816C184.805 16.424 185.397 13.384 186.581 10.696C187.765 7.976 189.541 5.832 191.909 4.264C194.309 2.664 197.237 1.864 200.693 1.864C204.149 1.864 207.061 2.664 209.429 4.264C211.829 5.832 213.621 7.976 214.805 10.696C216.021 13.384 216.629 16.424 216.629 19.816C216.629 23.208 216.021 26.248 214.805 28.936C213.621 31.624 211.829 33.752 209.429 35.32C207.061 36.888 204.149 37.672 200.693 37.672C197.237 37.672 194.309 36.888 191.909 35.32C189.541 33.752 187.765 31.624 186.581 28.936C185.397 26.248 184.805 23.208 184.805 19.816ZM211.397 19.96C211.397 17.656 211.061 15.336 210.389 13C209.749 10.632 208.645 8.648 207.077 7.048C205.509 5.416 203.461 4.6 200.933 4.6C198.661 4.6 196.693 5.304 195.029 6.712C193.397 8.088 192.149 9.96 191.285 12.328C190.421 14.696 189.989 17.32 189.989 20.2C189.989 22.984 190.389 25.48 191.189 27.688C191.989 29.896 193.173 31.64 194.741 32.92C196.341 34.2 198.261 34.84 200.501 34.84C202.741 34.84 204.677 34.184 206.309 32.872C207.973 31.56 209.237 29.784 210.101 27.544C210.965 25.272 211.397 22.744 211.397 19.96ZM227.496 27.352C227.496 29.272 227.656 30.824 227.976 32.008C228.296 33.192 228.856 34.312 229.656 35.368L230.28 36.232L229.656 37H220.536L219.96 35.368L221.064 35.08C222.28 34.728 223.096 34.264 223.512 33.688C223.928 33.112 224.136 32.088 224.136 30.616V8.92C224.136 7.448 223.928 6.424 223.512 5.848C223.096 5.272 222.28 4.808 221.064 4.456L219.96 4.168L220.536 2.536H228.264L246.6 29.752V8.92C246.6 7.448 246.392 6.424 245.976 5.848C245.56 5.272 244.744 4.808 243.528 4.456L242.424 4.168L243 2.536H252.12L252.744 3.304L252.12 4.168C251.32 5.224 250.76 6.344 250.44 7.528C250.12 8.712 249.96 10.264 249.96 12.184V32.776C249.96 33.384 250.008 33.88 250.104 34.264C250.2 34.648 250.376 35.016 250.632 35.368L251.256 36.232L250.632 37H245.784L227.496 9.88V27.352ZM280.742 33.064C278.246 35.144 275.43 36.184 272.294 36.184C269.062 36.184 266.326 35.432 264.086 33.928C261.846 32.424 260.166 30.376 259.046 27.784C257.958 25.16 257.414 22.216 257.414 18.952C257.414 15.848 258.006 13 259.19 10.408C260.374 7.816 262.15 5.752 264.518 4.216C266.918 2.648 269.846 1.864 273.302 1.864C275.542 1.864 277.526 2.184 279.254 2.824C281.014 3.464 282.39 4.36 283.382 5.512C284.374 6.632 284.87 7.928 284.87 9.4C284.87 11.032 284.374 12.376 283.382 13.432C282.422 14.488 281.206 15.016 279.734 15.016C279.254 15.016 278.966 14.984 278.87 14.92C278.774 14.856 278.726 14.696 278.726 14.44C278.726 14.344 278.854 14.072 279.11 13.624C279.398 13.176 279.638 12.68 279.83 12.136C280.054 11.56 280.166 10.872 280.166 10.072C280.166 8.44 279.526 7.112 278.246 6.088C276.998 5.064 275.35 4.552 273.302 4.552C270.774 4.552 268.71 5.272 267.11 6.712C265.51 8.152 264.358 9.944 263.654 12.088C262.95 14.232 262.598 16.44 262.598 18.712C262.598 21.368 262.998 23.8 263.798 26.008C264.63 28.184 265.814 29.912 267.35 31.192C268.886 32.472 270.678 33.112 272.726 33.112C275.894 33.112 278.566 32.024 280.742 29.848V27.4C280.742 25.928 280.534 24.904 280.118 24.328C279.702 23.752 278.886 23.288 277.67 22.936L276.566 22.648L277.142 21.016H287.222L287.846 21.784L287.222 22.648C286.422 23.704 285.862 24.824 285.542 26.008C285.222 27.192 285.062 28.744 285.062 30.664V36.232C285.062 45.64 281.254 50.344 273.638 50.344C271.75 50.344 270.15 50.008 268.838 49.336C267.526 48.696 266.534 47.848 265.862 46.792C265.222 45.768 264.902 44.664 264.902 43.48C264.902 41.88 265.446 40.504 266.534 39.352C267.622 38.232 269.11 37.672 270.998 37.672C271.318 37.672 271.542 37.72 271.67 37.816C271.83 37.944 271.91 38.072 271.91 38.2C271.91 38.328 271.686 38.632 271.238 39.112C270.79 39.592 270.39 40.168 270.038 40.84C269.718 41.512 269.558 42.36 269.558 43.384C269.558 44.664 269.99 45.72 270.854 46.552C271.75 47.416 272.95 47.848 274.454 47.848C276.534 47.848 278.102 47.048 279.158 45.448C280.214 43.848 280.742 41.224 280.742 37.576V33.064Z" fill="#F1FA8C"/>
</svg>
