<svg width="327" height="56" viewBox="0 0 327 56" fill="none" xmlns="http://www.w3.org/2000/svg">
<g filter="url(#filter0_f_169_497)">
<path d="M32.3242 27.9062H40.8008C42.0898 27.9062 43.1771 27.4896 44.0625 26.6562C44.9609 25.8229 45.4102 24.638 45.4102 23.1016C45.4102 21.9688 44.9414 20.9531 44.0039 20.0547C43.0664 19.1432 41.9987 18.6875 40.8008 18.6875H28.7305V44H27.3242V17.2812H40.8008C42.3893 17.2812 43.7891 17.8737 45 19.0586C46.2109 20.2305 46.8164 21.5781 46.8164 23.1016C46.8164 24.9766 46.2305 26.4805 45.0586 27.6133C43.8867 28.7461 42.4674 29.3125 40.8008 29.3125H32.3242V27.9062ZM32.3242 30.7188H40.8008C42.832 30.7188 44.5768 30.0091 46.0352 28.5898C47.4935 27.1576 48.2227 25.3281 48.2227 23.1016C48.2227 21.1875 47.474 19.5078 45.9766 18.0625C44.4922 16.6042 42.7669 15.875 40.8008 15.875H25.918V44H24.5117V14.4688H40.8008C42.3503 14.4688 43.8021 14.8659 45.1562 15.6602C46.5234 16.4544 47.6107 17.5221 48.418 18.8633C49.2253 20.1914 49.6289 21.6042 49.6289 23.1016C49.6289 25.6667 48.7565 27.8151 47.0117 29.5469C45.2799 31.2656 43.2096 32.125 40.8008 32.125H32.3242V30.7188ZM32.3242 33.5312H40.8008C42.6237 33.5312 44.3164 33.082 45.8789 32.1836C47.4414 31.2852 48.6914 30.0352 49.6289 28.4336C50.5664 26.819 51.0352 25.0417 51.0352 23.1016C51.0352 21.3438 50.5664 19.6966 49.6289 18.1602C48.7044 16.6107 47.4544 15.3737 45.8789 14.4492C44.3034 13.5247 42.6107 13.0625 40.8008 13.0625H23.1055V44H21.6992V11.6562H40.8008C42.8451 11.6562 44.7656 12.1836 46.5625 13.2383C48.3594 14.2799 49.7852 15.6862 50.8398 17.457C51.9076 19.2148 52.4414 21.0964 52.4414 23.1016C52.4414 25.4193 51.9401 27.457 50.9375 29.2148C49.9479 30.9727 48.6003 32.3464 46.8945 33.3359L50.5273 44H49.043L45.5664 34C45.0456 34.2083 44.6484 34.3516 44.375 34.4297L47.6367 44H46.1523L42.9688 34.7617C42.8516 34.7878 42.4349 34.8333 41.7188 34.8984L44.7461 44H43.2617L40.2734 34.9375H39.0039L41.8555 44H40.3711L37.5 34.9375H32.3242V33.5312ZM31.543 44H30.1367V20.0938H40.8008C41.6732 20.0938 42.4219 20.3932 43.0469 20.9922C43.6849 21.5781 44.0039 22.2812 44.0039 23.1016C44.0039 25.3672 42.9362 26.5 40.8008 26.5H32.3242V25.0938H40.8008C41.3607 25.0938 41.7969 24.9505 42.1094 24.6641C42.4349 24.3646 42.5977 23.8438 42.5977 23.1016C42.5977 22.6458 42.4219 22.2682 42.0703 21.9688C41.7318 21.6562 41.3086 21.5 40.8008 21.5H31.543V44ZM61.4805 44H60.0742V11.6562H61.4805V44ZM58.668 44H57.2617V11.6562H58.668V44ZM55.8555 44H54.4492V11.6562H55.8555V44ZM64.293 36.9688H79.2539V38.375H64.293V39.7812H79.2539V41.1875H64.293V42.5938H79.2539V44H62.8867V11.6562H79.2539V13.0625H64.293V14.4688H79.2539V15.875H64.293V17.2812H79.2539V18.6875H64.293V24.3125H71.9688V25.7188H64.293V27.125H71.9688V28.5312H64.293V29.9375H71.9688V31.3438H64.293V36.9688ZM81.1055 13.0625V11.6562H102.199V13.0625H81.1055ZM81.1055 15.875V14.4688H102.199V15.875H81.1055ZM81.1055 18.6875V17.2812H102.199V18.6875H96.5742V44H95.168V18.6875H93.7617V44H92.3555V18.6875H90.9492V44H89.543V18.6875H88.1367V44H86.7305V18.6875H81.1055ZM115.027 27.9062H123.504C124.793 27.9062 125.88 27.4896 126.766 26.6562C127.664 25.8229 128.113 24.638 128.113 23.1016C128.113 21.9688 127.645 20.9531 126.707 20.0547C125.77 19.1432 124.702 18.6875 123.504 18.6875H111.434V44H110.027V17.2812H123.504C125.092 17.2812 126.492 17.8737 127.703 19.0586C128.914 20.2305 129.52 21.5781 129.52 23.1016C129.52 24.9766 128.934 26.4805 127.762 27.6133C126.59 28.7461 125.171 29.3125 123.504 29.3125H115.027V27.9062ZM115.027 30.7188H123.504C125.535 30.7188 127.28 30.0091 128.738 28.5898C130.197 27.1576 130.926 25.3281 130.926 23.1016C130.926 21.1875 130.177 19.5078 128.68 18.0625C127.195 16.6042 125.47 15.875 123.504 15.875H108.621V44H107.215V14.4688H123.504C125.053 14.4688 126.505 14.8659 127.859 15.6602C129.227 16.4544 130.314 17.5221 131.121 18.8633C131.928 20.1914 132.332 21.6042 132.332 23.1016C132.332 25.6667 131.46 27.8151 129.715 29.5469C127.983 31.2656 125.913 32.125 123.504 32.125H115.027V30.7188ZM115.027 33.5312H123.504C125.327 33.5312 127.02 33.082 128.582 32.1836C130.145 31.2852 131.395 30.0352 132.332 28.4336C133.27 26.819 133.738 25.0417 133.738 23.1016C133.738 21.3438 133.27 19.6966 132.332 18.1602C131.408 16.6107 130.158 15.3737 128.582 14.4492C127.007 13.5247 125.314 13.0625 123.504 13.0625H105.809V44H104.402V11.6562H123.504C125.548 11.6562 127.469 12.1836 129.266 13.2383C131.062 14.2799 132.488 15.6862 133.543 17.457C134.611 19.2148 135.145 21.0964 135.145 23.1016C135.145 25.4193 134.643 27.457 133.641 29.2148C132.651 30.9727 131.303 32.3464 129.598 33.3359L133.23 44H131.746L128.27 34C127.749 34.2083 127.352 34.3516 127.078 34.4297L130.34 44H128.855L125.672 34.7617C125.555 34.7878 125.138 34.8333 124.422 34.8984L127.449 44H125.965L122.977 34.9375H121.707L124.559 44H123.074L120.203 34.9375H115.027V33.5312ZM114.246 44H112.84V20.0938H123.504C124.376 20.0938 125.125 20.3932 125.75 20.9922C126.388 21.5781 126.707 22.2812 126.707 23.1016C126.707 25.3672 125.639 26.5 123.504 26.5H115.027V25.0938H123.504C124.064 25.0938 124.5 24.9505 124.812 24.6641C125.138 24.3646 125.301 23.8438 125.301 23.1016C125.301 22.6458 125.125 22.2682 124.773 21.9688C124.435 21.6562 124.012 21.5 123.504 21.5H114.246V44ZM144.164 22.3594C142.654 23.8698 141.898 25.6927 141.898 27.8281C141.898 29.9635 142.654 31.7865 144.164 33.2969C145.674 34.8073 147.497 35.5625 149.633 35.5625C151.768 35.5625 153.591 34.8073 155.102 33.2969C156.612 31.7865 157.367 29.9635 157.367 27.8281C157.367 25.6927 156.612 23.8698 155.102 22.3594C153.591 20.849 151.768 20.0938 149.633 20.0938C147.497 20.0938 145.674 20.849 144.164 22.3594ZM141.215 31.3828C140.733 30.25 140.492 29.0651 140.492 27.8281C140.492 26.5911 140.733 25.4128 141.215 24.293C141.697 23.1602 142.348 22.1836 143.168 21.3633C143.988 20.543 144.958 19.8919 146.078 19.4102C147.211 18.9284 148.396 18.6875 149.633 18.6875C150.87 18.6875 152.048 18.9284 153.168 19.4102C154.301 19.8919 155.277 20.543 156.098 21.3633C156.918 22.1836 157.569 23.1602 158.051 24.293C158.533 25.4128 158.773 26.5911 158.773 27.8281C158.773 29.0651 158.533 30.25 158.051 31.3828C157.569 32.5026 156.918 33.4727 156.098 34.293C155.277 35.1133 154.301 35.7643 153.168 36.2461C152.048 36.7279 150.87 36.9688 149.633 36.9688C148.396 36.9688 147.211 36.7279 146.078 36.2461C144.958 35.7643 143.988 35.1133 143.168 34.293C142.348 33.4727 141.697 32.5026 141.215 31.3828ZM140.492 22.5352C139.555 24.1497 139.086 25.9141 139.086 27.8281C139.086 29.7422 139.555 31.5065 140.492 33.1211C141.443 34.7357 142.725 36.0182 144.34 36.9688C145.954 37.9062 147.719 38.375 149.633 38.375C151.547 38.375 153.311 37.9062 154.926 36.9688C156.54 36.0182 157.816 34.7357 158.754 33.1211C159.704 31.5065 160.18 29.7422 160.18 27.8281C160.18 25.9141 159.704 24.1497 158.754 22.5352C157.816 20.9206 156.54 19.6445 154.926 18.707C153.311 17.7565 151.547 17.2812 149.633 17.2812C147.719 17.2812 145.954 17.7565 144.34 18.707C142.725 19.6445 141.443 20.9206 140.492 22.5352ZM139.281 33.8242C138.214 31.9883 137.68 29.9896 137.68 27.8281C137.68 25.6667 138.214 23.668 139.281 21.832C140.349 19.9961 141.801 18.5443 143.637 17.4766C145.473 16.4089 147.471 15.875 149.633 15.875C151.794 15.875 153.793 16.4089 155.629 17.4766C157.465 18.5443 158.917 19.9961 159.984 21.832C161.052 23.668 161.586 25.6667 161.586 27.8281C161.586 29.9896 161.052 31.9883 159.984 33.8242C158.917 35.6602 157.465 37.112 155.629 38.1797C153.793 39.2474 151.794 39.7812 149.633 39.7812C147.471 39.7812 145.473 39.2474 143.637 38.1797C141.801 37.112 140.349 35.6602 139.281 33.8242ZM137.328 22.6328C136.625 24.2865 136.273 26.0182 136.273 27.8281C136.273 29.638 136.625 31.3698 137.328 33.0234C138.031 34.6771 138.975 36.1029 140.16 37.3008C141.358 38.4857 142.784 39.4297 144.438 40.1328C146.091 40.8359 147.823 41.1875 149.633 41.1875C151.443 41.1875 153.174 40.8359 154.828 40.1328C156.482 39.4297 157.901 38.4857 159.086 37.3008C160.284 36.1029 161.234 34.6771 161.938 33.0234C162.641 31.3698 162.992 29.638 162.992 27.8281C162.992 26.0182 162.641 24.2865 161.938 22.6328C161.234 20.9792 160.284 19.5599 159.086 18.375C157.901 17.1771 156.482 16.2266 154.828 15.5234C153.174 14.8203 151.443 14.4688 149.633 14.4688C147.823 14.4688 146.091 14.8203 144.438 15.5234C142.784 16.2266 141.358 17.1771 140.16 18.375C138.975 19.5599 138.031 20.9792 137.328 22.6328ZM136.84 35.2305C135.525 32.9648 134.867 30.4974 134.867 27.8281C134.867 25.1589 135.525 22.6914 136.84 20.4258C138.168 18.1602 139.965 16.3698 142.23 15.0547C144.496 13.7266 146.964 13.0625 149.633 13.0625C152.302 13.0625 154.77 13.7266 157.035 15.0547C159.301 16.3698 161.091 18.1602 162.406 20.4258C163.734 22.6914 164.398 25.1589 164.398 27.8281C164.398 30.4974 163.734 32.9648 162.406 35.2305C161.091 37.4961 159.301 39.293 157.035 40.6211C154.77 41.9362 152.302 42.5938 149.633 42.5938C146.964 42.5938 144.496 41.9362 142.23 40.6211C139.965 39.293 138.168 37.4961 136.84 35.2305ZM134.73 21.5586C133.884 23.5508 133.461 25.6406 133.461 27.8281C133.461 30.0156 133.884 32.112 134.73 34.1172C135.59 36.1094 136.742 37.8281 138.188 39.2734C139.633 40.7188 141.352 41.8711 143.344 42.7305C145.349 43.5768 147.445 44 149.633 44C151.82 44 153.91 43.5768 155.902 42.7305C157.908 41.8711 159.633 40.7188 161.078 39.2734C162.523 37.8281 163.669 36.1094 164.516 34.1172C165.375 32.112 165.805 30.0156 165.805 27.8281C165.805 25.6406 165.375 23.5508 164.516 21.5586C163.669 19.5534 162.523 17.8281 161.078 16.3828C159.633 14.9375 157.908 13.7917 155.902 12.9453C153.91 12.0859 151.82 11.6562 149.633 11.6562C147.445 11.6562 145.349 12.0859 143.344 12.9453C141.352 13.7917 139.633 14.9375 138.188 16.3828C136.742 17.8281 135.59 19.5534 134.73 21.5586ZM133.441 34.6641C132.517 32.4896 132.055 30.2109 132.055 27.8281C132.055 25.4453 132.517 23.1732 133.441 21.0117C134.379 18.8372 135.629 16.9688 137.191 15.4062C138.767 13.8307 140.635 12.5807 142.797 11.6562C144.971 10.7188 147.25 10.25 149.633 10.25C152.016 10.25 154.288 10.7188 156.449 11.6562C158.624 12.5807 160.492 13.8307 162.055 15.4062C163.63 16.9688 164.88 18.8372 165.805 21.0117C166.742 23.1732 167.211 25.4453 167.211 27.8281C167.211 30.2109 166.742 32.4896 165.805 34.6641C164.88 36.8255 163.63 38.694 162.055 40.2695C160.492 41.832 158.624 43.0755 156.449 44C154.288 44.9375 152.016 45.4062 149.633 45.4062C147.25 45.4062 144.971 44.9375 142.797 44C140.635 43.0755 138.767 41.832 137.191 40.2695C135.629 38.694 134.379 36.8255 133.441 34.6641ZM180.059 28.6875H188.223C189.564 28.6875 190.697 28.2383 191.621 27.3398C192.559 26.4284 193.027 25.1458 193.027 23.4922C193.027 22.2552 192.539 21.1484 191.562 20.1719C190.586 19.1823 189.473 18.6875 188.223 18.6875H176.152V44H174.746V17.2812H188.223C189.863 17.2812 191.309 17.9128 192.559 19.1758C193.809 20.4388 194.434 21.8776 194.434 23.4922C194.434 25.4844 193.828 27.0859 192.617 28.2969C191.406 29.4948 189.941 30.0938 188.223 30.0938H180.059V28.6875ZM180.059 31.5H188.223C189.577 31.5 190.827 31.1745 191.973 30.5234C193.132 29.8594 194.062 28.9089 194.766 27.6719C195.482 26.4349 195.84 25.0417 195.84 23.4922C195.84 21.487 195.072 19.7161 193.535 18.1797C192.012 16.6432 190.241 15.875 188.223 15.875H173.34V44H171.934V14.4688H188.223C189.798 14.4688 191.283 14.8854 192.676 15.7188C194.069 16.5521 195.176 17.6654 195.996 19.0586C196.829 20.4518 197.246 21.9297 197.246 23.4922C197.246 25.263 196.829 26.8776 195.996 28.3359C195.163 29.7812 194.056 30.9076 192.676 31.7148C191.309 32.5091 189.824 32.9062 188.223 32.9062H180.059V31.5ZM180.059 34.3125H188.223C189.616 34.3125 190.951 34.0391 192.227 33.4922C193.503 32.9323 194.609 32.1836 195.547 31.2461C196.497 30.2956 197.253 29.1497 197.812 27.8086C198.372 26.4544 198.652 25.0156 198.652 23.4922C198.652 21.6693 198.177 19.957 197.227 18.3555C196.276 16.7409 194.993 15.4583 193.379 14.5078C191.777 13.5443 190.059 13.0625 188.223 13.0625H170.527V44H169.121V11.6562H188.223C190.306 11.6562 192.259 12.2031 194.082 13.2969C195.905 14.3776 197.357 15.8294 198.438 17.6523C199.518 19.4753 200.059 21.4219 200.059 23.4922C200.059 25.3411 199.74 27.0469 199.102 28.6094C198.464 30.1589 197.604 31.4479 196.523 32.4766C195.443 33.5052 194.186 34.306 192.754 34.8789C191.322 35.4388 189.811 35.7188 188.223 35.7188H180.059V34.3125ZM178.965 44H177.559V20.0938H188.223C189.147 20.0938 189.941 20.4323 190.605 21.1094C191.283 21.7865 191.621 22.5807 191.621 23.4922C191.621 26.0182 190.488 27.2812 188.223 27.2812H180.059V25.875H188.223C188.848 25.875 189.336 25.6992 189.688 25.3477C190.039 24.9961 190.215 24.3776 190.215 23.4922C190.215 22.9193 190.02 22.444 189.629 22.0664C189.251 21.6888 188.783 21.5 188.223 21.5H178.965V44ZM213.531 22.3594C212.021 23.8698 211.266 25.6927 211.266 27.8281C211.266 29.9635 212.021 31.7865 213.531 33.2969C215.042 34.8073 216.865 35.5625 219 35.5625C221.135 35.5625 222.958 34.8073 224.469 33.2969C225.979 31.7865 226.734 29.9635 226.734 27.8281C226.734 25.6927 225.979 23.8698 224.469 22.3594C222.958 20.849 221.135 20.0938 219 20.0938C216.865 20.0938 215.042 20.849 213.531 22.3594ZM210.582 31.3828C210.1 30.25 209.859 29.0651 209.859 27.8281C209.859 26.5911 210.1 25.4128 210.582 24.293C211.064 23.1602 211.715 22.1836 212.535 21.3633C213.355 20.543 214.326 19.8919 215.445 19.4102C216.578 18.9284 217.763 18.6875 219 18.6875C220.237 18.6875 221.415 18.9284 222.535 19.4102C223.668 19.8919 224.645 20.543 225.465 21.3633C226.285 22.1836 226.936 23.1602 227.418 24.293C227.9 25.4128 228.141 26.5911 228.141 27.8281C228.141 29.0651 227.9 30.25 227.418 31.3828C226.936 32.5026 226.285 33.4727 225.465 34.293C224.645 35.1133 223.668 35.7643 222.535 36.2461C221.415 36.7279 220.237 36.9688 219 36.9688C217.763 36.9688 216.578 36.7279 215.445 36.2461C214.326 35.7643 213.355 35.1133 212.535 34.293C211.715 33.4727 211.064 32.5026 210.582 31.3828ZM209.859 22.5352C208.922 24.1497 208.453 25.9141 208.453 27.8281C208.453 29.7422 208.922 31.5065 209.859 33.1211C210.81 34.7357 212.092 36.0182 213.707 36.9688C215.322 37.9062 217.086 38.375 219 38.375C220.914 38.375 222.678 37.9062 224.293 36.9688C225.908 36.0182 227.184 34.7357 228.121 33.1211C229.072 31.5065 229.547 29.7422 229.547 27.8281C229.547 25.9141 229.072 24.1497 228.121 22.5352C227.184 20.9206 225.908 19.6445 224.293 18.707C222.678 17.7565 220.914 17.2812 219 17.2812C217.086 17.2812 215.322 17.7565 213.707 18.707C212.092 19.6445 210.81 20.9206 209.859 22.5352ZM208.648 33.8242C207.581 31.9883 207.047 29.9896 207.047 27.8281C207.047 25.6667 207.581 23.668 208.648 21.832C209.716 19.9961 211.168 18.5443 213.004 17.4766C214.84 16.4089 216.839 15.875 219 15.875C221.161 15.875 223.16 16.4089 224.996 17.4766C226.832 18.5443 228.284 19.9961 229.352 21.832C230.419 23.668 230.953 25.6667 230.953 27.8281C230.953 29.9896 230.419 31.9883 229.352 33.8242C228.284 35.6602 226.832 37.112 224.996 38.1797C223.16 39.2474 221.161 39.7812 219 39.7812C216.839 39.7812 214.84 39.2474 213.004 38.1797C211.168 37.112 209.716 35.6602 208.648 33.8242ZM206.695 22.6328C205.992 24.2865 205.641 26.0182 205.641 27.8281C205.641 29.638 205.992 31.3698 206.695 33.0234C207.398 34.6771 208.342 36.1029 209.527 37.3008C210.725 38.4857 212.151 39.4297 213.805 40.1328C215.458 40.8359 217.19 41.1875 219 41.1875C220.81 41.1875 222.542 40.8359 224.195 40.1328C225.849 39.4297 227.268 38.4857 228.453 37.3008C229.651 36.1029 230.602 34.6771 231.305 33.0234C232.008 31.3698 232.359 29.638 232.359 27.8281C232.359 26.0182 232.008 24.2865 231.305 22.6328C230.602 20.9792 229.651 19.5599 228.453 18.375C227.268 17.1771 225.849 16.2266 224.195 15.5234C222.542 14.8203 220.81 14.4688 219 14.4688C217.19 14.4688 215.458 14.8203 213.805 15.5234C212.151 16.2266 210.725 17.1771 209.527 18.375C208.342 19.5599 207.398 20.9792 206.695 22.6328ZM206.207 35.2305C204.892 32.9648 204.234 30.4974 204.234 27.8281C204.234 25.1589 204.892 22.6914 206.207 20.4258C207.535 18.1602 209.332 16.3698 211.598 15.0547C213.863 13.7266 216.331 13.0625 219 13.0625C221.669 13.0625 224.137 13.7266 226.402 15.0547C228.668 16.3698 230.458 18.1602 231.773 20.4258C233.102 22.6914 233.766 25.1589 233.766 27.8281C233.766 30.4974 233.102 32.9648 231.773 35.2305C230.458 37.4961 228.668 39.293 226.402 40.6211C224.137 41.9362 221.669 42.5938 219 42.5938C216.331 42.5938 213.863 41.9362 211.598 40.6211C209.332 39.293 207.535 37.4961 206.207 35.2305ZM204.098 21.5586C203.251 23.5508 202.828 25.6406 202.828 27.8281C202.828 30.0156 203.251 32.112 204.098 34.1172C204.957 36.1094 206.109 37.8281 207.555 39.2734C209 40.7188 210.719 41.8711 212.711 42.7305C214.716 43.5768 216.812 44 219 44C221.188 44 223.277 43.5768 225.27 42.7305C227.275 41.8711 229 40.7188 230.445 39.2734C231.891 37.8281 233.036 36.1094 233.883 34.1172C234.742 32.112 235.172 30.0156 235.172 27.8281C235.172 25.6406 234.742 23.5508 233.883 21.5586C233.036 19.5534 231.891 17.8281 230.445 16.3828C229 14.9375 227.275 13.7917 225.27 12.9453C223.277 12.0859 221.188 11.6562 219 11.6562C216.812 11.6562 214.716 12.0859 212.711 12.9453C210.719 13.7917 209 14.9375 207.555 16.3828C206.109 17.8281 204.957 19.5534 204.098 21.5586ZM202.809 34.6641C201.884 32.4896 201.422 30.2109 201.422 27.8281C201.422 25.4453 201.884 23.1732 202.809 21.0117C203.746 18.8372 204.996 16.9688 206.559 15.4062C208.134 13.8307 210.003 12.5807 212.164 11.6562C214.339 10.7188 216.617 10.25 219 10.25C221.383 10.25 223.655 10.7188 225.816 11.6562C227.991 12.5807 229.859 13.8307 231.422 15.4062C232.997 16.9688 234.247 18.8372 235.172 21.0117C236.109 23.1732 236.578 25.4453 236.578 27.8281C236.578 30.2109 236.109 32.4896 235.172 34.6641C234.247 36.8255 232.997 38.694 231.422 40.2695C229.859 41.832 227.991 43.0755 225.816 44C223.655 44.9375 221.383 45.4062 219 45.4062C216.617 45.4062 214.339 44.9375 212.164 44C210.003 43.0755 208.134 41.832 206.559 40.2695C204.996 38.694 203.746 36.8255 202.809 34.6641ZM261.457 28.4336L260.051 26.1094V11.6562H261.457V28.4336ZM264.27 33.043L262.863 30.6797V11.6562H264.27V33.043ZM267.082 37.7109L265.676 35.3281V11.6562H267.082V37.7109ZM246.926 27.2227L248.332 29.5469V44H246.926V27.2227ZM244.113 22.6133L245.52 24.9766V44H244.113V22.6133ZM241.301 17.9453L242.707 20.3281V44H241.301V17.9453ZM241.789 11.6562H243.43L263.312 44H261.672L241.789 11.6562ZM245.109 11.6562H246.77L266.633 44H264.953L245.109 11.6562ZM248.41 11.6562H250.051L268.488 41.7148V11.6562H269.895V44C269.895 44 269.341 44 268.234 44L248.41 11.6562ZM239.895 13.9414V44H238.488V11.6562C238.488 11.6562 239.048 11.6562 240.168 11.6562L259.992 44H258.371L239.895 13.9414ZM298.445 27.1055H299.852V44H298.445V27.1055ZM304.07 27.1055H305.477V44H304.07V27.1055ZM301.258 27.1055H302.664V44H301.258V27.1055ZM297.039 27.1055V44C294.565 44.9375 292 45.4062 289.344 45.4062C287.039 45.4062 284.832 44.9831 282.723 44.1367C280.613 43.2904 278.758 42.1185 277.156 40.6211C275.555 39.1107 274.272 37.2487 273.309 35.0352C272.358 32.8086 271.883 30.4062 271.883 27.8281C271.883 25.4453 272.345 23.1732 273.27 21.0117C274.207 18.8372 275.457 16.9688 277.02 15.4062C278.595 13.8307 280.464 12.5807 282.625 11.6562C284.799 10.7188 287.078 10.25 289.461 10.25C292.43 10.25 295.19 10.9401 297.742 12.3203C300.294 13.7005 302.378 15.5755 303.992 17.9453L302.82 18.707C301.336 16.5326 299.415 14.8138 297.059 13.5508C294.715 12.2878 292.182 11.6562 289.461 11.6562C287.273 11.6562 285.177 12.0859 283.172 12.9453C281.18 13.7917 279.461 14.9375 278.016 16.3828C276.57 17.8281 275.418 19.5534 274.559 21.5586C273.712 23.5508 273.289 25.6406 273.289 27.8281C273.289 30.1849 273.725 32.3854 274.598 34.4297C275.483 36.474 276.655 38.1862 278.113 39.5664C279.585 40.9466 281.29 42.0339 283.23 42.8281C285.171 43.6094 287.189 44 289.285 44C291.486 44 293.602 43.6549 295.633 42.9648V41.6172C293.693 42.2682 291.655 42.5938 289.52 42.5938C287.97 42.5938 286.46 42.3789 284.988 41.9492C283.53 41.5065 282.176 40.862 280.926 40.0156C279.689 39.1562 278.602 38.1406 277.664 36.9688C276.74 35.7839 276.01 34.4102 275.477 32.8477C274.956 31.2721 274.695 29.599 274.695 27.8281C274.695 25.1589 275.353 22.6914 276.668 20.4258C277.996 18.1602 279.793 16.3698 282.059 15.0547C284.324 13.7266 286.792 13.0625 289.461 13.0625C291.961 13.0625 294.285 13.6484 296.434 14.8203C298.582 15.9792 300.333 17.5547 301.688 19.5469L300.516 20.3086C299.292 18.5117 297.703 17.0924 295.75 16.0508C293.81 14.9961 291.714 14.4688 289.461 14.4688C287.651 14.4688 285.919 14.8203 284.266 15.5234C282.612 16.2266 281.186 17.1771 279.988 18.375C278.803 19.5599 277.859 20.9792 277.156 22.6328C276.453 24.2865 276.102 26.0182 276.102 27.8281C276.102 29.4557 276.336 30.9857 276.805 32.418C277.286 33.8372 277.944 35.0807 278.777 36.1484C279.624 37.2031 280.607 38.1146 281.727 38.8828C282.846 39.638 284.064 40.2109 285.379 40.6016C286.707 40.9922 288.068 41.1875 289.461 41.1875C291.622 41.1875 293.68 40.8229 295.633 40.0938V38.6875C293.706 39.4297 291.694 39.8008 289.598 39.8008C288.009 39.8008 286.492 39.5339 285.047 39C283.602 38.4531 282.312 37.6849 281.18 36.6953C280.06 35.7057 279.168 34.4427 278.504 32.9062C277.84 31.3698 277.508 29.6771 277.508 27.8281C277.508 25.6667 278.042 23.668 279.109 21.832C280.177 19.9961 281.629 18.5443 283.465 17.4766C285.301 16.4089 287.299 15.875 289.461 15.875C291.479 15.875 293.354 16.3438 295.086 17.2812C296.831 18.2188 298.25 19.4948 299.344 21.1094L298.172 21.8711C297.208 20.4648 295.958 19.3516 294.422 18.5312C292.898 17.6979 291.245 17.2812 289.461 17.2812C287.547 17.2812 285.783 17.7565 284.168 18.707C282.553 19.6445 281.271 20.9206 280.32 22.5352C279.383 24.1497 278.914 25.9141 278.914 27.8281C278.914 29.1562 279.103 30.3932 279.48 31.5391C279.858 32.6849 280.379 33.6745 281.043 34.5078C281.707 35.3411 282.482 36.0508 283.367 36.6367C284.266 37.2227 285.229 37.6654 286.258 37.9648C287.286 38.2513 288.354 38.3945 289.461 38.3945C291.661 38.3945 293.719 37.9583 295.633 37.0859V35.7383C293.784 36.5586 291.785 36.9688 289.637 36.9688C288.4 36.9688 287.234 36.7799 286.141 36.4023C285.047 36.0247 284.057 35.4714 283.172 34.7422C282.299 34.013 281.603 33.056 281.082 31.8711C280.574 30.6732 280.32 29.3255 280.32 27.8281C280.32 26.5911 280.561 25.4128 281.043 24.293C281.525 23.1602 282.176 22.1836 282.996 21.3633C283.816 20.543 284.786 19.8919 285.906 19.4102C287.039 18.9284 288.224 18.6875 289.461 18.6875C291.01 18.6875 292.449 19.0521 293.777 19.7812C295.105 20.4974 296.186 21.474 297.02 22.7109L295.867 23.4727C295.164 22.431 294.246 21.6107 293.113 21.0117C291.993 20.3997 290.776 20.0938 289.461 20.0938C287.326 20.0938 285.503 20.849 283.992 22.3594C282.482 23.8698 281.727 25.6927 281.727 27.8281C281.727 29.1432 281.941 30.3086 282.371 31.3242C282.801 32.3268 283.387 33.1341 284.129 33.7461C284.884 34.3451 285.717 34.8008 286.629 35.1133C287.553 35.4128 288.543 35.5625 289.598 35.5625C291.759 35.5625 293.771 35.1133 295.633 34.2148V27.1055H297.039Z" fill="url(#paint0_linear_169_497)"/>
</g>
<path d="M32.3242 27.9062H40.8008C42.0898 27.9062 43.1771 27.4896 44.0625 26.6562C44.9609 25.8229 45.4102 24.638 45.4102 23.1016C45.4102 21.9688 44.9414 20.9531 44.0039 20.0547C43.0664 19.1432 41.9987 18.6875 40.8008 18.6875H28.7305V44H27.3242V17.2812H40.8008C42.3893 17.2812 43.7891 17.8737 45 19.0586C46.2109 20.2305 46.8164 21.5781 46.8164 23.1016C46.8164 24.9766 46.2305 26.4805 45.0586 27.6133C43.8867 28.7461 42.4674 29.3125 40.8008 29.3125H32.3242V27.9062ZM32.3242 30.7188H40.8008C42.832 30.7188 44.5768 30.0091 46.0352 28.5898C47.4935 27.1576 48.2227 25.3281 48.2227 23.1016C48.2227 21.1875 47.474 19.5078 45.9766 18.0625C44.4922 16.6042 42.7669 15.875 40.8008 15.875H25.918V44H24.5117V14.4688H40.8008C42.3503 14.4688 43.8021 14.8659 45.1562 15.6602C46.5234 16.4544 47.6107 17.5221 48.418 18.8633C49.2253 20.1914 49.6289 21.6042 49.6289 23.1016C49.6289 25.6667 48.7565 27.8151 47.0117 29.5469C45.2799 31.2656 43.2096 32.125 40.8008 32.125H32.3242V30.7188ZM32.3242 33.5312H40.8008C42.6237 33.5312 44.3164 33.082 45.8789 32.1836C47.4414 31.2852 48.6914 30.0352 49.6289 28.4336C50.5664 26.819 51.0352 25.0417 51.0352 23.1016C51.0352 21.3438 50.5664 19.6966 49.6289 18.1602C48.7044 16.6107 47.4544 15.3737 45.8789 14.4492C44.3034 13.5247 42.6107 13.0625 40.8008 13.0625H23.1055V44H21.6992V11.6562H40.8008C42.8451 11.6562 44.7656 12.1836 46.5625 13.2383C48.3594 14.2799 49.7852 15.6862 50.8398 17.457C51.9076 19.2148 52.4414 21.0964 52.4414 23.1016C52.4414 25.4193 51.9401 27.457 50.9375 29.2148C49.9479 30.9727 48.6003 32.3464 46.8945 33.3359L50.5273 44H49.043L45.5664 34C45.0456 34.2083 44.6484 34.3516 44.375 34.4297L47.6367 44H46.1523L42.9688 34.7617C42.8516 34.7878 42.4349 34.8333 41.7188 34.8984L44.7461 44H43.2617L40.2734 34.9375H39.0039L41.8555 44H40.3711L37.5 34.9375H32.3242V33.5312ZM31.543 44H30.1367V20.0938H40.8008C41.6732 20.0938 42.4219 20.3932 43.0469 20.9922C43.6849 21.5781 44.0039 22.2812 44.0039 23.1016C44.0039 25.3672 42.9362 26.5 40.8008 26.5H32.3242V25.0938H40.8008C41.3607 25.0938 41.7969 24.9505 42.1094 24.6641C42.4349 24.3646 42.5977 23.8438 42.5977 23.1016C42.5977 22.6458 42.4219 22.2682 42.0703 21.9688C41.7318 21.6562 41.3086 21.5 40.8008 21.5H31.543V44ZM61.4805 44H60.0742V11.6562H61.4805V44ZM58.668 44H57.2617V11.6562H58.668V44ZM55.8555 44H54.4492V11.6562H55.8555V44ZM64.293 36.9688H79.2539V38.375H64.293V39.7812H79.2539V41.1875H64.293V42.5938H79.2539V44H62.8867V11.6562H79.2539V13.0625H64.293V14.4688H79.2539V15.875H64.293V17.2812H79.2539V18.6875H64.293V24.3125H71.9688V25.7188H64.293V27.125H71.9688V28.5312H64.293V29.9375H71.9688V31.3438H64.293V36.9688ZM81.1055 13.0625V11.6562H102.199V13.0625H81.1055ZM81.1055 15.875V14.4688H102.199V15.875H81.1055ZM81.1055 18.6875V17.2812H102.199V18.6875H96.5742V44H95.168V18.6875H93.7617V44H92.3555V18.6875H90.9492V44H89.543V18.6875H88.1367V44H86.7305V18.6875H81.1055ZM115.027 27.9062H123.504C124.793 27.9062 125.88 27.4896 126.766 26.6562C127.664 25.8229 128.113 24.638 128.113 23.1016C128.113 21.9688 127.645 20.9531 126.707 20.0547C125.77 19.1432 124.702 18.6875 123.504 18.6875H111.434V44H110.027V17.2812H123.504C125.092 17.2812 126.492 17.8737 127.703 19.0586C128.914 20.2305 129.52 21.5781 129.52 23.1016C129.52 24.9766 128.934 26.4805 127.762 27.6133C126.59 28.7461 125.171 29.3125 123.504 29.3125H115.027V27.9062ZM115.027 30.7188H123.504C125.535 30.7188 127.28 30.0091 128.738 28.5898C130.197 27.1576 130.926 25.3281 130.926 23.1016C130.926 21.1875 130.177 19.5078 128.68 18.0625C127.195 16.6042 125.47 15.875 123.504 15.875H108.621V44H107.215V14.4688H123.504C125.053 14.4688 126.505 14.8659 127.859 15.6602C129.227 16.4544 130.314 17.5221 131.121 18.8633C131.928 20.1914 132.332 21.6042 132.332 23.1016C132.332 25.6667 131.46 27.8151 129.715 29.5469C127.983 31.2656 125.913 32.125 123.504 32.125H115.027V30.7188ZM115.027 33.5312H123.504C125.327 33.5312 127.02 33.082 128.582 32.1836C130.145 31.2852 131.395 30.0352 132.332 28.4336C133.27 26.819 133.738 25.0417 133.738 23.1016C133.738 21.3438 133.27 19.6966 132.332 18.1602C131.408 16.6107 130.158 15.3737 128.582 14.4492C127.007 13.5247 125.314 13.0625 123.504 13.0625H105.809V44H104.402V11.6562H123.504C125.548 11.6562 127.469 12.1836 129.266 13.2383C131.062 14.2799 132.488 15.6862 133.543 17.457C134.611 19.2148 135.145 21.0964 135.145 23.1016C135.145 25.4193 134.643 27.457 133.641 29.2148C132.651 30.9727 131.303 32.3464 129.598 33.3359L133.23 44H131.746L128.27 34C127.749 34.2083 127.352 34.3516 127.078 34.4297L130.34 44H128.855L125.672 34.7617C125.555 34.7878 125.138 34.8333 124.422 34.8984L127.449 44H125.965L122.977 34.9375H121.707L124.559 44H123.074L120.203 34.9375H115.027V33.5312ZM114.246 44H112.84V20.0938H123.504C124.376 20.0938 125.125 20.3932 125.75 20.9922C126.388 21.5781 126.707 22.2812 126.707 23.1016C126.707 25.3672 125.639 26.5 123.504 26.5H115.027V25.0938H123.504C124.064 25.0938 124.5 24.9505 124.812 24.6641C125.138 24.3646 125.301 23.8438 125.301 23.1016C125.301 22.6458 125.125 22.2682 124.773 21.9688C124.435 21.6562 124.012 21.5 123.504 21.5H114.246V44ZM144.164 22.3594C142.654 23.8698 141.898 25.6927 141.898 27.8281C141.898 29.9635 142.654 31.7865 144.164 33.2969C145.674 34.8073 147.497 35.5625 149.633 35.5625C151.768 35.5625 153.591 34.8073 155.102 33.2969C156.612 31.7865 157.367 29.9635 157.367 27.8281C157.367 25.6927 156.612 23.8698 155.102 22.3594C153.591 20.849 151.768 20.0938 149.633 20.0938C147.497 20.0938 145.674 20.849 144.164 22.3594ZM141.215 31.3828C140.733 30.25 140.492 29.0651 140.492 27.8281C140.492 26.5911 140.733 25.4128 141.215 24.293C141.697 23.1602 142.348 22.1836 143.168 21.3633C143.988 20.543 144.958 19.8919 146.078 19.4102C147.211 18.9284 148.396 18.6875 149.633 18.6875C150.87 18.6875 152.048 18.9284 153.168 19.4102C154.301 19.8919 155.277 20.543 156.098 21.3633C156.918 22.1836 157.569 23.1602 158.051 24.293C158.533 25.4128 158.773 26.5911 158.773 27.8281C158.773 29.0651 158.533 30.25 158.051 31.3828C157.569 32.5026 156.918 33.4727 156.098 34.293C155.277 35.1133 154.301 35.7643 153.168 36.2461C152.048 36.7279 150.87 36.9688 149.633 36.9688C148.396 36.9688 147.211 36.7279 146.078 36.2461C144.958 35.7643 143.988 35.1133 143.168 34.293C142.348 33.4727 141.697 32.5026 141.215 31.3828ZM140.492 22.5352C139.555 24.1497 139.086 25.9141 139.086 27.8281C139.086 29.7422 139.555 31.5065 140.492 33.1211C141.443 34.7357 142.725 36.0182 144.34 36.9688C145.954 37.9062 147.719 38.375 149.633 38.375C151.547 38.375 153.311 37.9062 154.926 36.9688C156.54 36.0182 157.816 34.7357 158.754 33.1211C159.704 31.5065 160.18 29.7422 160.18 27.8281C160.18 25.9141 159.704 24.1497 158.754 22.5352C157.816 20.9206 156.54 19.6445 154.926 18.707C153.311 17.7565 151.547 17.2812 149.633 17.2812C147.719 17.2812 145.954 17.7565 144.34 18.707C142.725 19.6445 141.443 20.9206 140.492 22.5352ZM139.281 33.8242C138.214 31.9883 137.68 29.9896 137.68 27.8281C137.68 25.6667 138.214 23.668 139.281 21.832C140.349 19.9961 141.801 18.5443 143.637 17.4766C145.473 16.4089 147.471 15.875 149.633 15.875C151.794 15.875 153.793 16.4089 155.629 17.4766C157.465 18.5443 158.917 19.9961 159.984 21.832C161.052 23.668 161.586 25.6667 161.586 27.8281C161.586 29.9896 161.052 31.9883 159.984 33.8242C158.917 35.6602 157.465 37.112 155.629 38.1797C153.793 39.2474 151.794 39.7812 149.633 39.7812C147.471 39.7812 145.473 39.2474 143.637 38.1797C141.801 37.112 140.349 35.6602 139.281 33.8242ZM137.328 22.6328C136.625 24.2865 136.273 26.0182 136.273 27.8281C136.273 29.638 136.625 31.3698 137.328 33.0234C138.031 34.6771 138.975 36.1029 140.16 37.3008C141.358 38.4857 142.784 39.4297 144.438 40.1328C146.091 40.8359 147.823 41.1875 149.633 41.1875C151.443 41.1875 153.174 40.8359 154.828 40.1328C156.482 39.4297 157.901 38.4857 159.086 37.3008C160.284 36.1029 161.234 34.6771 161.938 33.0234C162.641 31.3698 162.992 29.638 162.992 27.8281C162.992 26.0182 162.641 24.2865 161.938 22.6328C161.234 20.9792 160.284 19.5599 159.086 18.375C157.901 17.1771 156.482 16.2266 154.828 15.5234C153.174 14.8203 151.443 14.4688 149.633 14.4688C147.823 14.4688 146.091 14.8203 144.438 15.5234C142.784 16.2266 141.358 17.1771 140.16 18.375C138.975 19.5599 138.031 20.9792 137.328 22.6328ZM136.84 35.2305C135.525 32.9648 134.867 30.4974 134.867 27.8281C134.867 25.1589 135.525 22.6914 136.84 20.4258C138.168 18.1602 139.965 16.3698 142.23 15.0547C144.496 13.7266 146.964 13.0625 149.633 13.0625C152.302 13.0625 154.77 13.7266 157.035 15.0547C159.301 16.3698 161.091 18.1602 162.406 20.4258C163.734 22.6914 164.398 25.1589 164.398 27.8281C164.398 30.4974 163.734 32.9648 162.406 35.2305C161.091 37.4961 159.301 39.293 157.035 40.6211C154.77 41.9362 152.302 42.5938 149.633 42.5938C146.964 42.5938 144.496 41.9362 142.23 40.6211C139.965 39.293 138.168 37.4961 136.84 35.2305ZM134.73 21.5586C133.884 23.5508 133.461 25.6406 133.461 27.8281C133.461 30.0156 133.884 32.112 134.73 34.1172C135.59 36.1094 136.742 37.8281 138.188 39.2734C139.633 40.7188 141.352 41.8711 143.344 42.7305C145.349 43.5768 147.445 44 149.633 44C151.82 44 153.91 43.5768 155.902 42.7305C157.908 41.8711 159.633 40.7188 161.078 39.2734C162.523 37.8281 163.669 36.1094 164.516 34.1172C165.375 32.112 165.805 30.0156 165.805 27.8281C165.805 25.6406 165.375 23.5508 164.516 21.5586C163.669 19.5534 162.523 17.8281 161.078 16.3828C159.633 14.9375 157.908 13.7917 155.902 12.9453C153.91 12.0859 151.82 11.6562 149.633 11.6562C147.445 11.6562 145.349 12.0859 143.344 12.9453C141.352 13.7917 139.633 14.9375 138.188 16.3828C136.742 17.8281 135.59 19.5534 134.73 21.5586ZM133.441 34.6641C132.517 32.4896 132.055 30.2109 132.055 27.8281C132.055 25.4453 132.517 23.1732 133.441 21.0117C134.379 18.8372 135.629 16.9688 137.191 15.4062C138.767 13.8307 140.635 12.5807 142.797 11.6562C144.971 10.7188 147.25 10.25 149.633 10.25C152.016 10.25 154.288 10.7188 156.449 11.6562C158.624 12.5807 160.492 13.8307 162.055 15.4062C163.63 16.9688 164.88 18.8372 165.805 21.0117C166.742 23.1732 167.211 25.4453 167.211 27.8281C167.211 30.2109 166.742 32.4896 165.805 34.6641C164.88 36.8255 163.63 38.694 162.055 40.2695C160.492 41.832 158.624 43.0755 156.449 44C154.288 44.9375 152.016 45.4062 149.633 45.4062C147.25 45.4062 144.971 44.9375 142.797 44C140.635 43.0755 138.767 41.832 137.191 40.2695C135.629 38.694 134.379 36.8255 133.441 34.6641ZM180.059 28.6875H188.223C189.564 28.6875 190.697 28.2383 191.621 27.3398C192.559 26.4284 193.027 25.1458 193.027 23.4922C193.027 22.2552 192.539 21.1484 191.562 20.1719C190.586 19.1823 189.473 18.6875 188.223 18.6875H176.152V44H174.746V17.2812H188.223C189.863 17.2812 191.309 17.9128 192.559 19.1758C193.809 20.4388 194.434 21.8776 194.434 23.4922C194.434 25.4844 193.828 27.0859 192.617 28.2969C191.406 29.4948 189.941 30.0938 188.223 30.0938H180.059V28.6875ZM180.059 31.5H188.223C189.577 31.5 190.827 31.1745 191.973 30.5234C193.132 29.8594 194.062 28.9089 194.766 27.6719C195.482 26.4349 195.84 25.0417 195.84 23.4922C195.84 21.487 195.072 19.7161 193.535 18.1797C192.012 16.6432 190.241 15.875 188.223 15.875H173.34V44H171.934V14.4688H188.223C189.798 14.4688 191.283 14.8854 192.676 15.7188C194.069 16.5521 195.176 17.6654 195.996 19.0586C196.829 20.4518 197.246 21.9297 197.246 23.4922C197.246 25.263 196.829 26.8776 195.996 28.3359C195.163 29.7812 194.056 30.9076 192.676 31.7148C191.309 32.5091 189.824 32.9062 188.223 32.9062H180.059V31.5ZM180.059 34.3125H188.223C189.616 34.3125 190.951 34.0391 192.227 33.4922C193.503 32.9323 194.609 32.1836 195.547 31.2461C196.497 30.2956 197.253 29.1497 197.812 27.8086C198.372 26.4544 198.652 25.0156 198.652 23.4922C198.652 21.6693 198.177 19.957 197.227 18.3555C196.276 16.7409 194.993 15.4583 193.379 14.5078C191.777 13.5443 190.059 13.0625 188.223 13.0625H170.527V44H169.121V11.6562H188.223C190.306 11.6562 192.259 12.2031 194.082 13.2969C195.905 14.3776 197.357 15.8294 198.438 17.6523C199.518 19.4753 200.059 21.4219 200.059 23.4922C200.059 25.3411 199.74 27.0469 199.102 28.6094C198.464 30.1589 197.604 31.4479 196.523 32.4766C195.443 33.5052 194.186 34.306 192.754 34.8789C191.322 35.4388 189.811 35.7188 188.223 35.7188H180.059V34.3125ZM178.965 44H177.559V20.0938H188.223C189.147 20.0938 189.941 20.4323 190.605 21.1094C191.283 21.7865 191.621 22.5807 191.621 23.4922C191.621 26.0182 190.488 27.2812 188.223 27.2812H180.059V25.875H188.223C188.848 25.875 189.336 25.6992 189.688 25.3477C190.039 24.9961 190.215 24.3776 190.215 23.4922C190.215 22.9193 190.02 22.444 189.629 22.0664C189.251 21.6888 188.783 21.5 188.223 21.5H178.965V44ZM213.531 22.3594C212.021 23.8698 211.266 25.6927 211.266 27.8281C211.266 29.9635 212.021 31.7865 213.531 33.2969C215.042 34.8073 216.865 35.5625 219 35.5625C221.135 35.5625 222.958 34.8073 224.469 33.2969C225.979 31.7865 226.734 29.9635 226.734 27.8281C226.734 25.6927 225.979 23.8698 224.469 22.3594C222.958 20.849 221.135 20.0938 219 20.0938C216.865 20.0938 215.042 20.849 213.531 22.3594ZM210.582 31.3828C210.1 30.25 209.859 29.0651 209.859 27.8281C209.859 26.5911 210.1 25.4128 210.582 24.293C211.064 23.1602 211.715 22.1836 212.535 21.3633C213.355 20.543 214.326 19.8919 215.445 19.4102C216.578 18.9284 217.763 18.6875 219 18.6875C220.237 18.6875 221.415 18.9284 222.535 19.4102C223.668 19.8919 224.645 20.543 225.465 21.3633C226.285 22.1836 226.936 23.1602 227.418 24.293C227.9 25.4128 228.141 26.5911 228.141 27.8281C228.141 29.0651 227.9 30.25 227.418 31.3828C226.936 32.5026 226.285 33.4727 225.465 34.293C224.645 35.1133 223.668 35.7643 222.535 36.2461C221.415 36.7279 220.237 36.9688 219 36.9688C217.763 36.9688 216.578 36.7279 215.445 36.2461C214.326 35.7643 213.355 35.1133 212.535 34.293C211.715 33.4727 211.064 32.5026 210.582 31.3828ZM209.859 22.5352C208.922 24.1497 208.453 25.9141 208.453 27.8281C208.453 29.7422 208.922 31.5065 209.859 33.1211C210.81 34.7357 212.092 36.0182 213.707 36.9688C215.322 37.9062 217.086 38.375 219 38.375C220.914 38.375 222.678 37.9062 224.293 36.9688C225.908 36.0182 227.184 34.7357 228.121 33.1211C229.072 31.5065 229.547 29.7422 229.547 27.8281C229.547 25.9141 229.072 24.1497 228.121 22.5352C227.184 20.9206 225.908 19.6445 224.293 18.707C222.678 17.7565 220.914 17.2812 219 17.2812C217.086 17.2812 215.322 17.7565 213.707 18.707C212.092 19.6445 210.81 20.9206 209.859 22.5352ZM208.648 33.8242C207.581 31.9883 207.047 29.9896 207.047 27.8281C207.047 25.6667 207.581 23.668 208.648 21.832C209.716 19.9961 211.168 18.5443 213.004 17.4766C214.84 16.4089 216.839 15.875 219 15.875C221.161 15.875 223.16 16.4089 224.996 17.4766C226.832 18.5443 228.284 19.9961 229.352 21.832C230.419 23.668 230.953 25.6667 230.953 27.8281C230.953 29.9896 230.419 31.9883 229.352 33.8242C228.284 35.6602 226.832 37.112 224.996 38.1797C223.16 39.2474 221.161 39.7812 219 39.7812C216.839 39.7812 214.84 39.2474 213.004 38.1797C211.168 37.112 209.716 35.6602 208.648 33.8242ZM206.695 22.6328C205.992 24.2865 205.641 26.0182 205.641 27.8281C205.641 29.638 205.992 31.3698 206.695 33.0234C207.398 34.6771 208.342 36.1029 209.527 37.3008C210.725 38.4857 212.151 39.4297 213.805 40.1328C215.458 40.8359 217.19 41.1875 219 41.1875C220.81 41.1875 222.542 40.8359 224.195 40.1328C225.849 39.4297 227.268 38.4857 228.453 37.3008C229.651 36.1029 230.602 34.6771 231.305 33.0234C232.008 31.3698 232.359 29.638 232.359 27.8281C232.359 26.0182 232.008 24.2865 231.305 22.6328C230.602 20.9792 229.651 19.5599 228.453 18.375C227.268 17.1771 225.849 16.2266 224.195 15.5234C222.542 14.8203 220.81 14.4688 219 14.4688C217.19 14.4688 215.458 14.8203 213.805 15.5234C212.151 16.2266 210.725 17.1771 209.527 18.375C208.342 19.5599 207.398 20.9792 206.695 22.6328ZM206.207 35.2305C204.892 32.9648 204.234 30.4974 204.234 27.8281C204.234 25.1589 204.892 22.6914 206.207 20.4258C207.535 18.1602 209.332 16.3698 211.598 15.0547C213.863 13.7266 216.331 13.0625 219 13.0625C221.669 13.0625 224.137 13.7266 226.402 15.0547C228.668 16.3698 230.458 18.1602 231.773 20.4258C233.102 22.6914 233.766 25.1589 233.766 27.8281C233.766 30.4974 233.102 32.9648 231.773 35.2305C230.458 37.4961 228.668 39.293 226.402 40.6211C224.137 41.9362 221.669 42.5938 219 42.5938C216.331 42.5938 213.863 41.9362 211.598 40.6211C209.332 39.293 207.535 37.4961 206.207 35.2305ZM204.098 21.5586C203.251 23.5508 202.828 25.6406 202.828 27.8281C202.828 30.0156 203.251 32.112 204.098 34.1172C204.957 36.1094 206.109 37.8281 207.555 39.2734C209 40.7188 210.719 41.8711 212.711 42.7305C214.716 43.5768 216.812 44 219 44C221.188 44 223.277 43.5768 225.27 42.7305C227.275 41.8711 229 40.7188 230.445 39.2734C231.891 37.8281 233.036 36.1094 233.883 34.1172C234.742 32.112 235.172 30.0156 235.172 27.8281C235.172 25.6406 234.742 23.5508 233.883 21.5586C233.036 19.5534 231.891 17.8281 230.445 16.3828C229 14.9375 227.275 13.7917 225.27 12.9453C223.277 12.0859 221.188 11.6562 219 11.6562C216.812 11.6562 214.716 12.0859 212.711 12.9453C210.719 13.7917 209 14.9375 207.555 16.3828C206.109 17.8281 204.957 19.5534 204.098 21.5586ZM202.809 34.6641C201.884 32.4896 201.422 30.2109 201.422 27.8281C201.422 25.4453 201.884 23.1732 202.809 21.0117C203.746 18.8372 204.996 16.9688 206.559 15.4062C208.134 13.8307 210.003 12.5807 212.164 11.6562C214.339 10.7188 216.617 10.25 219 10.25C221.383 10.25 223.655 10.7188 225.816 11.6562C227.991 12.5807 229.859 13.8307 231.422 15.4062C232.997 16.9688 234.247 18.8372 235.172 21.0117C236.109 23.1732 236.578 25.4453 236.578 27.8281C236.578 30.2109 236.109 32.4896 235.172 34.6641C234.247 36.8255 232.997 38.694 231.422 40.2695C229.859 41.832 227.991 43.0755 225.816 44C223.655 44.9375 221.383 45.4062 219 45.4062C216.617 45.4062 214.339 44.9375 212.164 44C210.003 43.0755 208.134 41.832 206.559 40.2695C204.996 38.694 203.746 36.8255 202.809 34.6641ZM261.457 28.4336L260.051 26.1094V11.6562H261.457V28.4336ZM264.27 33.043L262.863 30.6797V11.6562H264.27V33.043ZM267.082 37.7109L265.676 35.3281V11.6562H267.082V37.7109ZM246.926 27.2227L248.332 29.5469V44H246.926V27.2227ZM244.113 22.6133L245.52 24.9766V44H244.113V22.6133ZM241.301 17.9453L242.707 20.3281V44H241.301V17.9453ZM241.789 11.6562H243.43L263.312 44H261.672L241.789 11.6562ZM245.109 11.6562H246.77L266.633 44H264.953L245.109 11.6562ZM248.41 11.6562H250.051L268.488 41.7148V11.6562H269.895V44C269.895 44 269.341 44 268.234 44L248.41 11.6562ZM239.895 13.9414V44H238.488V11.6562C238.488 11.6562 239.048 11.6562 240.168 11.6562L259.992 44H258.371L239.895 13.9414ZM298.445 27.1055H299.852V44H298.445V27.1055ZM304.07 27.1055H305.477V44H304.07V27.1055ZM301.258 27.1055H302.664V44H301.258V27.1055ZM297.039 27.1055V44C294.565 44.9375 292 45.4062 289.344 45.4062C287.039 45.4062 284.832 44.9831 282.723 44.1367C280.613 43.2904 278.758 42.1185 277.156 40.6211C275.555 39.1107 274.272 37.2487 273.309 35.0352C272.358 32.8086 271.883 30.4062 271.883 27.8281C271.883 25.4453 272.345 23.1732 273.27 21.0117C274.207 18.8372 275.457 16.9688 277.02 15.4062C278.595 13.8307 280.464 12.5807 282.625 11.6562C284.799 10.7188 287.078 10.25 289.461 10.25C292.43 10.25 295.19 10.9401 297.742 12.3203C300.294 13.7005 302.378 15.5755 303.992 17.9453L302.82 18.707C301.336 16.5326 299.415 14.8138 297.059 13.5508C294.715 12.2878 292.182 11.6562 289.461 11.6562C287.273 11.6562 285.177 12.0859 283.172 12.9453C281.18 13.7917 279.461 14.9375 278.016 16.3828C276.57 17.8281 275.418 19.5534 274.559 21.5586C273.712 23.5508 273.289 25.6406 273.289 27.8281C273.289 30.1849 273.725 32.3854 274.598 34.4297C275.483 36.474 276.655 38.1862 278.113 39.5664C279.585 40.9466 281.29 42.0339 283.23 42.8281C285.171 43.6094 287.189 44 289.285 44C291.486 44 293.602 43.6549 295.633 42.9648V41.6172C293.693 42.2682 291.655 42.5938 289.52 42.5938C287.97 42.5938 286.46 42.3789 284.988 41.9492C283.53 41.5065 282.176 40.862 280.926 40.0156C279.689 39.1562 278.602 38.1406 277.664 36.9688C276.74 35.7839 276.01 34.4102 275.477 32.8477C274.956 31.2721 274.695 29.599 274.695 27.8281C274.695 25.1589 275.353 22.6914 276.668 20.4258C277.996 18.1602 279.793 16.3698 282.059 15.0547C284.324 13.7266 286.792 13.0625 289.461 13.0625C291.961 13.0625 294.285 13.6484 296.434 14.8203C298.582 15.9792 300.333 17.5547 301.688 19.5469L300.516 20.3086C299.292 18.5117 297.703 17.0924 295.75 16.0508C293.81 14.9961 291.714 14.4688 289.461 14.4688C287.651 14.4688 285.919 14.8203 284.266 15.5234C282.612 16.2266 281.186 17.1771 279.988 18.375C278.803 19.5599 277.859 20.9792 277.156 22.6328C276.453 24.2865 276.102 26.0182 276.102 27.8281C276.102 29.4557 276.336 30.9857 276.805 32.418C277.286 33.8372 277.944 35.0807 278.777 36.1484C279.624 37.2031 280.607 38.1146 281.727 38.8828C282.846 39.638 284.064 40.2109 285.379 40.6016C286.707 40.9922 288.068 41.1875 289.461 41.1875C291.622 41.1875 293.68 40.8229 295.633 40.0938V38.6875C293.706 39.4297 291.694 39.8008 289.598 39.8008C288.009 39.8008 286.492 39.5339 285.047 39C283.602 38.4531 282.312 37.6849 281.18 36.6953C280.06 35.7057 279.168 34.4427 278.504 32.9062C277.84 31.3698 277.508 29.6771 277.508 27.8281C277.508 25.6667 278.042 23.668 279.109 21.832C280.177 19.9961 281.629 18.5443 283.465 17.4766C285.301 16.4089 287.299 15.875 289.461 15.875C291.479 15.875 293.354 16.3438 295.086 17.2812C296.831 18.2188 298.25 19.4948 299.344 21.1094L298.172 21.8711C297.208 20.4648 295.958 19.3516 294.422 18.5312C292.898 17.6979 291.245 17.2812 289.461 17.2812C287.547 17.2812 285.783 17.7565 284.168 18.707C282.553 19.6445 281.271 20.9206 280.32 22.5352C279.383 24.1497 278.914 25.9141 278.914 27.8281C278.914 29.1562 279.103 30.3932 279.48 31.5391C279.858 32.6849 280.379 33.6745 281.043 34.5078C281.707 35.3411 282.482 36.0508 283.367 36.6367C284.266 37.2227 285.229 37.6654 286.258 37.9648C287.286 38.2513 288.354 38.3945 289.461 38.3945C291.661 38.3945 293.719 37.9583 295.633 37.0859V35.7383C293.784 36.5586 291.785 36.9688 289.637 36.9688C288.4 36.9688 287.234 36.7799 286.141 36.4023C285.047 36.0247 284.057 35.4714 283.172 34.7422C282.299 34.013 281.603 33.056 281.082 31.8711C280.574 30.6732 280.32 29.3255 280.32 27.8281C280.32 26.5911 280.561 25.4128 281.043 24.293C281.525 23.1602 282.176 22.1836 282.996 21.3633C283.816 20.543 284.786 19.8919 285.906 19.4102C287.039 18.9284 288.224 18.6875 289.461 18.6875C291.01 18.6875 292.449 19.0521 293.777 19.7812C295.105 20.4974 296.186 21.474 297.02 22.7109L295.867 23.4727C295.164 22.431 294.246 21.6107 293.113 21.0117C291.993 20.3997 290.776 20.0938 289.461 20.0938C287.326 20.0938 285.503 20.849 283.992 22.3594C282.482 23.8698 281.727 25.6927 281.727 27.8281C281.727 29.1432 281.941 30.3086 282.371 31.3242C282.801 32.3268 283.387 33.1341 284.129 33.7461C284.884 34.3451 285.717 34.8008 286.629 35.1133C287.553 35.4128 288.543 35.5625 289.598 35.5625C291.759 35.5625 293.771 35.1133 295.633 34.2148V27.1055H297.039Z" fill="url(#paint1_linear_169_497)"/>
<path d="M32.3242 27.9062H40.8008C42.0898 27.9062 43.1771 27.4896 44.0625 26.6562C44.9609 25.8229 45.4102 24.638 45.4102 23.1016C45.4102 21.9688 44.9414 20.9531 44.0039 20.0547C43.0664 19.1432 41.9987 18.6875 40.8008 18.6875H28.7305V44H27.3242V17.2812H40.8008C42.3893 17.2812 43.7891 17.8737 45 19.0586C46.2109 20.2305 46.8164 21.5781 46.8164 23.1016C46.8164 24.9766 46.2305 26.4805 45.0586 27.6133C43.8867 28.7461 42.4674 29.3125 40.8008 29.3125H32.3242V27.9062ZM32.3242 30.7188H40.8008C42.832 30.7188 44.5768 30.0091 46.0352 28.5898C47.4935 27.1576 48.2227 25.3281 48.2227 23.1016C48.2227 21.1875 47.474 19.5078 45.9766 18.0625C44.4922 16.6042 42.7669 15.875 40.8008 15.875H25.918V44H24.5117V14.4688H40.8008C42.3503 14.4688 43.8021 14.8659 45.1562 15.6602C46.5234 16.4544 47.6107 17.5221 48.418 18.8633C49.2253 20.1914 49.6289 21.6042 49.6289 23.1016C49.6289 25.6667 48.7565 27.8151 47.0117 29.5469C45.2799 31.2656 43.2096 32.125 40.8008 32.125H32.3242V30.7188ZM32.3242 33.5312H40.8008C42.6237 33.5312 44.3164 33.082 45.8789 32.1836C47.4414 31.2852 48.6914 30.0352 49.6289 28.4336C50.5664 26.819 51.0352 25.0417 51.0352 23.1016C51.0352 21.3438 50.5664 19.6966 49.6289 18.1602C48.7044 16.6107 47.4544 15.3737 45.8789 14.4492C44.3034 13.5247 42.6107 13.0625 40.8008 13.0625H23.1055V44H21.6992V11.6562H40.8008C42.8451 11.6562 44.7656 12.1836 46.5625 13.2383C48.3594 14.2799 49.7852 15.6862 50.8398 17.457C51.9076 19.2148 52.4414 21.0964 52.4414 23.1016C52.4414 25.4193 51.9401 27.457 50.9375 29.2148C49.9479 30.9727 48.6003 32.3464 46.8945 33.3359L50.5273 44H49.043L45.5664 34C45.0456 34.2083 44.6484 34.3516 44.375 34.4297L47.6367 44H46.1523L42.9688 34.7617C42.8516 34.7878 42.4349 34.8333 41.7188 34.8984L44.7461 44H43.2617L40.2734 34.9375H39.0039L41.8555 44H40.3711L37.5 34.9375H32.3242V33.5312ZM31.543 44H30.1367V20.0938H40.8008C41.6732 20.0938 42.4219 20.3932 43.0469 20.9922C43.6849 21.5781 44.0039 22.2812 44.0039 23.1016C44.0039 25.3672 42.9362 26.5 40.8008 26.5H32.3242V25.0938H40.8008C41.3607 25.0938 41.7969 24.9505 42.1094 24.6641C42.4349 24.3646 42.5977 23.8438 42.5977 23.1016C42.5977 22.6458 42.4219 22.2682 42.0703 21.9688C41.7318 21.6562 41.3086 21.5 40.8008 21.5H31.543V44ZM61.4805 44H60.0742V11.6562H61.4805V44ZM58.668 44H57.2617V11.6562H58.668V44ZM55.8555 44H54.4492V11.6562H55.8555V44ZM64.293 36.9688H79.2539V38.375H64.293V39.7812H79.2539V41.1875H64.293V42.5938H79.2539V44H62.8867V11.6562H79.2539V13.0625H64.293V14.4688H79.2539V15.875H64.293V17.2812H79.2539V18.6875H64.293V24.3125H71.9688V25.7188H64.293V27.125H71.9688V28.5312H64.293V29.9375H71.9688V31.3438H64.293V36.9688ZM81.1055 13.0625V11.6562H102.199V13.0625H81.1055ZM81.1055 15.875V14.4688H102.199V15.875H81.1055ZM81.1055 18.6875V17.2812H102.199V18.6875H96.5742V44H95.168V18.6875H93.7617V44H92.3555V18.6875H90.9492V44H89.543V18.6875H88.1367V44H86.7305V18.6875H81.1055ZM115.027 27.9062H123.504C124.793 27.9062 125.88 27.4896 126.766 26.6562C127.664 25.8229 128.113 24.638 128.113 23.1016C128.113 21.9688 127.645 20.9531 126.707 20.0547C125.77 19.1432 124.702 18.6875 123.504 18.6875H111.434V44H110.027V17.2812H123.504C125.092 17.2812 126.492 17.8737 127.703 19.0586C128.914 20.2305 129.52 21.5781 129.52 23.1016C129.52 24.9766 128.934 26.4805 127.762 27.6133C126.59 28.7461 125.171 29.3125 123.504 29.3125H115.027V27.9062ZM115.027 30.7188H123.504C125.535 30.7188 127.28 30.0091 128.738 28.5898C130.197 27.1576 130.926 25.3281 130.926 23.1016C130.926 21.1875 130.177 19.5078 128.68 18.0625C127.195 16.6042 125.47 15.875 123.504 15.875H108.621V44H107.215V14.4688H123.504C125.053 14.4688 126.505 14.8659 127.859 15.6602C129.227 16.4544 130.314 17.5221 131.121 18.8633C131.928 20.1914 132.332 21.6042 132.332 23.1016C132.332 25.6667 131.46 27.8151 129.715 29.5469C127.983 31.2656 125.913 32.125 123.504 32.125H115.027V30.7188ZM115.027 33.5312H123.504C125.327 33.5312 127.02 33.082 128.582 32.1836C130.145 31.2852 131.395 30.0352 132.332 28.4336C133.27 26.819 133.738 25.0417 133.738 23.1016C133.738 21.3438 133.27 19.6966 132.332 18.1602C131.408 16.6107 130.158 15.3737 128.582 14.4492C127.007 13.5247 125.314 13.0625 123.504 13.0625H105.809V44H104.402V11.6562H123.504C125.548 11.6562 127.469 12.1836 129.266 13.2383C131.062 14.2799 132.488 15.6862 133.543 17.457C134.611 19.2148 135.145 21.0964 135.145 23.1016C135.145 25.4193 134.643 27.457 133.641 29.2148C132.651 30.9727 131.303 32.3464 129.598 33.3359L133.23 44H131.746L128.27 34C127.749 34.2083 127.352 34.3516 127.078 34.4297L130.34 44H128.855L125.672 34.7617C125.555 34.7878 125.138 34.8333 124.422 34.8984L127.449 44H125.965L122.977 34.9375H121.707L124.559 44H123.074L120.203 34.9375H115.027V33.5312ZM114.246 44H112.84V20.0938H123.504C124.376 20.0938 125.125 20.3932 125.75 20.9922C126.388 21.5781 126.707 22.2812 126.707 23.1016C126.707 25.3672 125.639 26.5 123.504 26.5H115.027V25.0938H123.504C124.064 25.0938 124.5 24.9505 124.812 24.6641C125.138 24.3646 125.301 23.8438 125.301 23.1016C125.301 22.6458 125.125 22.2682 124.773 21.9688C124.435 21.6562 124.012 21.5 123.504 21.5H114.246V44ZM144.164 22.3594C142.654 23.8698 141.898 25.6927 141.898 27.8281C141.898 29.9635 142.654 31.7865 144.164 33.2969C145.674 34.8073 147.497 35.5625 149.633 35.5625C151.768 35.5625 153.591 34.8073 155.102 33.2969C156.612 31.7865 157.367 29.9635 157.367 27.8281C157.367 25.6927 156.612 23.8698 155.102 22.3594C153.591 20.849 151.768 20.0938 149.633 20.0938C147.497 20.0938 145.674 20.849 144.164 22.3594ZM141.215 31.3828C140.733 30.25 140.492 29.0651 140.492 27.8281C140.492 26.5911 140.733 25.4128 141.215 24.293C141.697 23.1602 142.348 22.1836 143.168 21.3633C143.988 20.543 144.958 19.8919 146.078 19.4102C147.211 18.9284 148.396 18.6875 149.633 18.6875C150.87 18.6875 152.048 18.9284 153.168 19.4102C154.301 19.8919 155.277 20.543 156.098 21.3633C156.918 22.1836 157.569 23.1602 158.051 24.293C158.533 25.4128 158.773 26.5911 158.773 27.8281C158.773 29.0651 158.533 30.25 158.051 31.3828C157.569 32.5026 156.918 33.4727 156.098 34.293C155.277 35.1133 154.301 35.7643 153.168 36.2461C152.048 36.7279 150.87 36.9688 149.633 36.9688C148.396 36.9688 147.211 36.7279 146.078 36.2461C144.958 35.7643 143.988 35.1133 143.168 34.293C142.348 33.4727 141.697 32.5026 141.215 31.3828ZM140.492 22.5352C139.555 24.1497 139.086 25.9141 139.086 27.8281C139.086 29.7422 139.555 31.5065 140.492 33.1211C141.443 34.7357 142.725 36.0182 144.34 36.9688C145.954 37.9062 147.719 38.375 149.633 38.375C151.547 38.375 153.311 37.9062 154.926 36.9688C156.54 36.0182 157.816 34.7357 158.754 33.1211C159.704 31.5065 160.18 29.7422 160.18 27.8281C160.18 25.9141 159.704 24.1497 158.754 22.5352C157.816 20.9206 156.54 19.6445 154.926 18.707C153.311 17.7565 151.547 17.2812 149.633 17.2812C147.719 17.2812 145.954 17.7565 144.34 18.707C142.725 19.6445 141.443 20.9206 140.492 22.5352ZM139.281 33.8242C138.214 31.9883 137.68 29.9896 137.68 27.8281C137.68 25.6667 138.214 23.668 139.281 21.832C140.349 19.9961 141.801 18.5443 143.637 17.4766C145.473 16.4089 147.471 15.875 149.633 15.875C151.794 15.875 153.793 16.4089 155.629 17.4766C157.465 18.5443 158.917 19.9961 159.984 21.832C161.052 23.668 161.586 25.6667 161.586 27.8281C161.586 29.9896 161.052 31.9883 159.984 33.8242C158.917 35.6602 157.465 37.112 155.629 38.1797C153.793 39.2474 151.794 39.7812 149.633 39.7812C147.471 39.7812 145.473 39.2474 143.637 38.1797C141.801 37.112 140.349 35.6602 139.281 33.8242ZM137.328 22.6328C136.625 24.2865 136.273 26.0182 136.273 27.8281C136.273 29.638 136.625 31.3698 137.328 33.0234C138.031 34.6771 138.975 36.1029 140.16 37.3008C141.358 38.4857 142.784 39.4297 144.438 40.1328C146.091 40.8359 147.823 41.1875 149.633 41.1875C151.443 41.1875 153.174 40.8359 154.828 40.1328C156.482 39.4297 157.901 38.4857 159.086 37.3008C160.284 36.1029 161.234 34.6771 161.938 33.0234C162.641 31.3698 162.992 29.638 162.992 27.8281C162.992 26.0182 162.641 24.2865 161.938 22.6328C161.234 20.9792 160.284 19.5599 159.086 18.375C157.901 17.1771 156.482 16.2266 154.828 15.5234C153.174 14.8203 151.443 14.4688 149.633 14.4688C147.823 14.4688 146.091 14.8203 144.438 15.5234C142.784 16.2266 141.358 17.1771 140.16 18.375C138.975 19.5599 138.031 20.9792 137.328 22.6328ZM136.84 35.2305C135.525 32.9648 134.867 30.4974 134.867 27.8281C134.867 25.1589 135.525 22.6914 136.84 20.4258C138.168 18.1602 139.965 16.3698 142.23 15.0547C144.496 13.7266 146.964 13.0625 149.633 13.0625C152.302 13.0625 154.77 13.7266 157.035 15.0547C159.301 16.3698 161.091 18.1602 162.406 20.4258C163.734 22.6914 164.398 25.1589 164.398 27.8281C164.398 30.4974 163.734 32.9648 162.406 35.2305C161.091 37.4961 159.301 39.293 157.035 40.6211C154.77 41.9362 152.302 42.5938 149.633 42.5938C146.964 42.5938 144.496 41.9362 142.23 40.6211C139.965 39.293 138.168 37.4961 136.84 35.2305ZM134.73 21.5586C133.884 23.5508 133.461 25.6406 133.461 27.8281C133.461 30.0156 133.884 32.112 134.73 34.1172C135.59 36.1094 136.742 37.8281 138.188 39.2734C139.633 40.7188 141.352 41.8711 143.344 42.7305C145.349 43.5768 147.445 44 149.633 44C151.82 44 153.91 43.5768 155.902 42.7305C157.908 41.8711 159.633 40.7188 161.078 39.2734C162.523 37.8281 163.669 36.1094 164.516 34.1172C165.375 32.112 165.805 30.0156 165.805 27.8281C165.805 25.6406 165.375 23.5508 164.516 21.5586C163.669 19.5534 162.523 17.8281 161.078 16.3828C159.633 14.9375 157.908 13.7917 155.902 12.9453C153.91 12.0859 151.82 11.6562 149.633 11.6562C147.445 11.6562 145.349 12.0859 143.344 12.9453C141.352 13.7917 139.633 14.9375 138.188 16.3828C136.742 17.8281 135.59 19.5534 134.73 21.5586ZM133.441 34.6641C132.517 32.4896 132.055 30.2109 132.055 27.8281C132.055 25.4453 132.517 23.1732 133.441 21.0117C134.379 18.8372 135.629 16.9688 137.191 15.4062C138.767 13.8307 140.635 12.5807 142.797 11.6562C144.971 10.7188 147.25 10.25 149.633 10.25C152.016 10.25 154.288 10.7188 156.449 11.6562C158.624 12.5807 160.492 13.8307 162.055 15.4062C163.63 16.9688 164.88 18.8372 165.805 21.0117C166.742 23.1732 167.211 25.4453 167.211 27.8281C167.211 30.2109 166.742 32.4896 165.805 34.6641C164.88 36.8255 163.63 38.694 162.055 40.2695C160.492 41.832 158.624 43.0755 156.449 44C154.288 44.9375 152.016 45.4062 149.633 45.4062C147.25 45.4062 144.971 44.9375 142.797 44C140.635 43.0755 138.767 41.832 137.191 40.2695C135.629 38.694 134.379 36.8255 133.441 34.6641ZM180.059 28.6875H188.223C189.564 28.6875 190.697 28.2383 191.621 27.3398C192.559 26.4284 193.027 25.1458 193.027 23.4922C193.027 22.2552 192.539 21.1484 191.562 20.1719C190.586 19.1823 189.473 18.6875 188.223 18.6875H176.152V44H174.746V17.2812H188.223C189.863 17.2812 191.309 17.9128 192.559 19.1758C193.809 20.4388 194.434 21.8776 194.434 23.4922C194.434 25.4844 193.828 27.0859 192.617 28.2969C191.406 29.4948 189.941 30.0938 188.223 30.0938H180.059V28.6875ZM180.059 31.5H188.223C189.577 31.5 190.827 31.1745 191.973 30.5234C193.132 29.8594 194.062 28.9089 194.766 27.6719C195.482 26.4349 195.84 25.0417 195.84 23.4922C195.84 21.487 195.072 19.7161 193.535 18.1797C192.012 16.6432 190.241 15.875 188.223 15.875H173.34V44H171.934V14.4688H188.223C189.798 14.4688 191.283 14.8854 192.676 15.7188C194.069 16.5521 195.176 17.6654 195.996 19.0586C196.829 20.4518 197.246 21.9297 197.246 23.4922C197.246 25.263 196.829 26.8776 195.996 28.3359C195.163 29.7812 194.056 30.9076 192.676 31.7148C191.309 32.5091 189.824 32.9062 188.223 32.9062H180.059V31.5ZM180.059 34.3125H188.223C189.616 34.3125 190.951 34.0391 192.227 33.4922C193.503 32.9323 194.609 32.1836 195.547 31.2461C196.497 30.2956 197.253 29.1497 197.812 27.8086C198.372 26.4544 198.652 25.0156 198.652 23.4922C198.652 21.6693 198.177 19.957 197.227 18.3555C196.276 16.7409 194.993 15.4583 193.379 14.5078C191.777 13.5443 190.059 13.0625 188.223 13.0625H170.527V44H169.121V11.6562H188.223C190.306 11.6562 192.259 12.2031 194.082 13.2969C195.905 14.3776 197.357 15.8294 198.438 17.6523C199.518 19.4753 200.059 21.4219 200.059 23.4922C200.059 25.3411 199.74 27.0469 199.102 28.6094C198.464 30.1589 197.604 31.4479 196.523 32.4766C195.443 33.5052 194.186 34.306 192.754 34.8789C191.322 35.4388 189.811 35.7188 188.223 35.7188H180.059V34.3125ZM178.965 44H177.559V20.0938H188.223C189.147 20.0938 189.941 20.4323 190.605 21.1094C191.283 21.7865 191.621 22.5807 191.621 23.4922C191.621 26.0182 190.488 27.2812 188.223 27.2812H180.059V25.875H188.223C188.848 25.875 189.336 25.6992 189.688 25.3477C190.039 24.9961 190.215 24.3776 190.215 23.4922C190.215 22.9193 190.02 22.444 189.629 22.0664C189.251 21.6888 188.783 21.5 188.223 21.5H178.965V44ZM213.531 22.3594C212.021 23.8698 211.266 25.6927 211.266 27.8281C211.266 29.9635 212.021 31.7865 213.531 33.2969C215.042 34.8073 216.865 35.5625 219 35.5625C221.135 35.5625 222.958 34.8073 224.469 33.2969C225.979 31.7865 226.734 29.9635 226.734 27.8281C226.734 25.6927 225.979 23.8698 224.469 22.3594C222.958 20.849 221.135 20.0938 219 20.0938C216.865 20.0938 215.042 20.849 213.531 22.3594ZM210.582 31.3828C210.1 30.25 209.859 29.0651 209.859 27.8281C209.859 26.5911 210.1 25.4128 210.582 24.293C211.064 23.1602 211.715 22.1836 212.535 21.3633C213.355 20.543 214.326 19.8919 215.445 19.4102C216.578 18.9284 217.763 18.6875 219 18.6875C220.237 18.6875 221.415 18.9284 222.535 19.4102C223.668 19.8919 224.645 20.543 225.465 21.3633C226.285 22.1836 226.936 23.1602 227.418 24.293C227.9 25.4128 228.141 26.5911 228.141 27.8281C228.141 29.0651 227.9 30.25 227.418 31.3828C226.936 32.5026 226.285 33.4727 225.465 34.293C224.645 35.1133 223.668 35.7643 222.535 36.2461C221.415 36.7279 220.237 36.9688 219 36.9688C217.763 36.9688 216.578 36.7279 215.445 36.2461C214.326 35.7643 213.355 35.1133 212.535 34.293C211.715 33.4727 211.064 32.5026 210.582 31.3828ZM209.859 22.5352C208.922 24.1497 208.453 25.9141 208.453 27.8281C208.453 29.7422 208.922 31.5065 209.859 33.1211C210.81 34.7357 212.092 36.0182 213.707 36.9688C215.322 37.9062 217.086 38.375 219 38.375C220.914 38.375 222.678 37.9062 224.293 36.9688C225.908 36.0182 227.184 34.7357 228.121 33.1211C229.072 31.5065 229.547 29.7422 229.547 27.8281C229.547 25.9141 229.072 24.1497 228.121 22.5352C227.184 20.9206 225.908 19.6445 224.293 18.707C222.678 17.7565 220.914 17.2812 219 17.2812C217.086 17.2812 215.322 17.7565 213.707 18.707C212.092 19.6445 210.81 20.9206 209.859 22.5352ZM208.648 33.8242C207.581 31.9883 207.047 29.9896 207.047 27.8281C207.047 25.6667 207.581 23.668 208.648 21.832C209.716 19.9961 211.168 18.5443 213.004 17.4766C214.84 16.4089 216.839 15.875 219 15.875C221.161 15.875 223.16 16.4089 224.996 17.4766C226.832 18.5443 228.284 19.9961 229.352 21.832C230.419 23.668 230.953 25.6667 230.953 27.8281C230.953 29.9896 230.419 31.9883 229.352 33.8242C228.284 35.6602 226.832 37.112 224.996 38.1797C223.16 39.2474 221.161 39.7812 219 39.7812C216.839 39.7812 214.84 39.2474 213.004 38.1797C211.168 37.112 209.716 35.6602 208.648 33.8242ZM206.695 22.6328C205.992 24.2865 205.641 26.0182 205.641 27.8281C205.641 29.638 205.992 31.3698 206.695 33.0234C207.398 34.6771 208.342 36.1029 209.527 37.3008C210.725 38.4857 212.151 39.4297 213.805 40.1328C215.458 40.8359 217.19 41.1875 219 41.1875C220.81 41.1875 222.542 40.8359 224.195 40.1328C225.849 39.4297 227.268 38.4857 228.453 37.3008C229.651 36.1029 230.602 34.6771 231.305 33.0234C232.008 31.3698 232.359 29.638 232.359 27.8281C232.359 26.0182 232.008 24.2865 231.305 22.6328C230.602 20.9792 229.651 19.5599 228.453 18.375C227.268 17.1771 225.849 16.2266 224.195 15.5234C222.542 14.8203 220.81 14.4688 219 14.4688C217.19 14.4688 215.458 14.8203 213.805 15.5234C212.151 16.2266 210.725 17.1771 209.527 18.375C208.342 19.5599 207.398 20.9792 206.695 22.6328ZM206.207 35.2305C204.892 32.9648 204.234 30.4974 204.234 27.8281C204.234 25.1589 204.892 22.6914 206.207 20.4258C207.535 18.1602 209.332 16.3698 211.598 15.0547C213.863 13.7266 216.331 13.0625 219 13.0625C221.669 13.0625 224.137 13.7266 226.402 15.0547C228.668 16.3698 230.458 18.1602 231.773 20.4258C233.102 22.6914 233.766 25.1589 233.766 27.8281C233.766 30.4974 233.102 32.9648 231.773 35.2305C230.458 37.4961 228.668 39.293 226.402 40.6211C224.137 41.9362 221.669 42.5938 219 42.5938C216.331 42.5938 213.863 41.9362 211.598 40.6211C209.332 39.293 207.535 37.4961 206.207 35.2305ZM204.098 21.5586C203.251 23.5508 202.828 25.6406 202.828 27.8281C202.828 30.0156 203.251 32.112 204.098 34.1172C204.957 36.1094 206.109 37.8281 207.555 39.2734C209 40.7188 210.719 41.8711 212.711 42.7305C214.716 43.5768 216.812 44 219 44C221.188 44 223.277 43.5768 225.27 42.7305C227.275 41.8711 229 40.7188 230.445 39.2734C231.891 37.8281 233.036 36.1094 233.883 34.1172C234.742 32.112 235.172 30.0156 235.172 27.8281C235.172 25.6406 234.742 23.5508 233.883 21.5586C233.036 19.5534 231.891 17.8281 230.445 16.3828C229 14.9375 227.275 13.7917 225.27 12.9453C223.277 12.0859 221.188 11.6562 219 11.6562C216.812 11.6562 214.716 12.0859 212.711 12.9453C210.719 13.7917 209 14.9375 207.555 16.3828C206.109 17.8281 204.957 19.5534 204.098 21.5586ZM202.809 34.6641C201.884 32.4896 201.422 30.2109 201.422 27.8281C201.422 25.4453 201.884 23.1732 202.809 21.0117C203.746 18.8372 204.996 16.9688 206.559 15.4062C208.134 13.8307 210.003 12.5807 212.164 11.6562C214.339 10.7188 216.617 10.25 219 10.25C221.383 10.25 223.655 10.7188 225.816 11.6562C227.991 12.5807 229.859 13.8307 231.422 15.4062C232.997 16.9688 234.247 18.8372 235.172 21.0117C236.109 23.1732 236.578 25.4453 236.578 27.8281C236.578 30.2109 236.109 32.4896 235.172 34.6641C234.247 36.8255 232.997 38.694 231.422 40.2695C229.859 41.832 227.991 43.0755 225.816 44C223.655 44.9375 221.383 45.4062 219 45.4062C216.617 45.4062 214.339 44.9375 212.164 44C210.003 43.0755 208.134 41.832 206.559 40.2695C204.996 38.694 203.746 36.8255 202.809 34.6641ZM261.457 28.4336L260.051 26.1094V11.6562H261.457V28.4336ZM264.27 33.043L262.863 30.6797V11.6562H264.27V33.043ZM267.082 37.7109L265.676 35.3281V11.6562H267.082V37.7109ZM246.926 27.2227L248.332 29.5469V44H246.926V27.2227ZM244.113 22.6133L245.52 24.9766V44H244.113V22.6133ZM241.301 17.9453L242.707 20.3281V44H241.301V17.9453ZM241.789 11.6562H243.43L263.312 44H261.672L241.789 11.6562ZM245.109 11.6562H246.77L266.633 44H264.953L245.109 11.6562ZM248.41 11.6562H250.051L268.488 41.7148V11.6562H269.895V44C269.895 44 269.341 44 268.234 44L248.41 11.6562ZM239.895 13.9414V44H238.488V11.6562C238.488 11.6562 239.048 11.6562 240.168 11.6562L259.992 44H258.371L239.895 13.9414ZM298.445 27.1055H299.852V44H298.445V27.1055ZM304.07 27.1055H305.477V44H304.07V27.1055ZM301.258 27.1055H302.664V44H301.258V27.1055ZM297.039 27.1055V44C294.565 44.9375 292 45.4062 289.344 45.4062C287.039 45.4062 284.832 44.9831 282.723 44.1367C280.613 43.2904 278.758 42.1185 277.156 40.6211C275.555 39.1107 274.272 37.2487 273.309 35.0352C272.358 32.8086 271.883 30.4062 271.883 27.8281C271.883 25.4453 272.345 23.1732 273.27 21.0117C274.207 18.8372 275.457 16.9688 277.02 15.4062C278.595 13.8307 280.464 12.5807 282.625 11.6562C284.799 10.7188 287.078 10.25 289.461 10.25C292.43 10.25 295.19 10.9401 297.742 12.3203C300.294 13.7005 302.378 15.5755 303.992 17.9453L302.82 18.707C301.336 16.5326 299.415 14.8138 297.059 13.5508C294.715 12.2878 292.182 11.6562 289.461 11.6562C287.273 11.6562 285.177 12.0859 283.172 12.9453C281.18 13.7917 279.461 14.9375 278.016 16.3828C276.57 17.8281 275.418 19.5534 274.559 21.5586C273.712 23.5508 273.289 25.6406 273.289 27.8281C273.289 30.1849 273.725 32.3854 274.598 34.4297C275.483 36.474 276.655 38.1862 278.113 39.5664C279.585 40.9466 281.29 42.0339 283.23 42.8281C285.171 43.6094 287.189 44 289.285 44C291.486 44 293.602 43.6549 295.633 42.9648V41.6172C293.693 42.2682 291.655 42.5938 289.52 42.5938C287.97 42.5938 286.46 42.3789 284.988 41.9492C283.53 41.5065 282.176 40.862 280.926 40.0156C279.689 39.1562 278.602 38.1406 277.664 36.9688C276.74 35.7839 276.01 34.4102 275.477 32.8477C274.956 31.2721 274.695 29.599 274.695 27.8281C274.695 25.1589 275.353 22.6914 276.668 20.4258C277.996 18.1602 279.793 16.3698 282.059 15.0547C284.324 13.7266 286.792 13.0625 289.461 13.0625C291.961 13.0625 294.285 13.6484 296.434 14.8203C298.582 15.9792 300.333 17.5547 301.688 19.5469L300.516 20.3086C299.292 18.5117 297.703 17.0924 295.75 16.0508C293.81 14.9961 291.714 14.4688 289.461 14.4688C287.651 14.4688 285.919 14.8203 284.266 15.5234C282.612 16.2266 281.186 17.1771 279.988 18.375C278.803 19.5599 277.859 20.9792 277.156 22.6328C276.453 24.2865 276.102 26.0182 276.102 27.8281C276.102 29.4557 276.336 30.9857 276.805 32.418C277.286 33.8372 277.944 35.0807 278.777 36.1484C279.624 37.2031 280.607 38.1146 281.727 38.8828C282.846 39.638 284.064 40.2109 285.379 40.6016C286.707 40.9922 288.068 41.1875 289.461 41.1875C291.622 41.1875 293.68 40.8229 295.633 40.0938V38.6875C293.706 39.4297 291.694 39.8008 289.598 39.8008C288.009 39.8008 286.492 39.5339 285.047 39C283.602 38.4531 282.312 37.6849 281.18 36.6953C280.06 35.7057 279.168 34.4427 278.504 32.9062C277.84 31.3698 277.508 29.6771 277.508 27.8281C277.508 25.6667 278.042 23.668 279.109 21.832C280.177 19.9961 281.629 18.5443 283.465 17.4766C285.301 16.4089 287.299 15.875 289.461 15.875C291.479 15.875 293.354 16.3438 295.086 17.2812C296.831 18.2188 298.25 19.4948 299.344 21.1094L298.172 21.8711C297.208 20.4648 295.958 19.3516 294.422 18.5312C292.898 17.6979 291.245 17.2812 289.461 17.2812C287.547 17.2812 285.783 17.7565 284.168 18.707C282.553 19.6445 281.271 20.9206 280.32 22.5352C279.383 24.1497 278.914 25.9141 278.914 27.8281C278.914 29.1562 279.103 30.3932 279.48 31.5391C279.858 32.6849 280.379 33.6745 281.043 34.5078C281.707 35.3411 282.482 36.0508 283.367 36.6367C284.266 37.2227 285.229 37.6654 286.258 37.9648C287.286 38.2513 288.354 38.3945 289.461 38.3945C291.661 38.3945 293.719 37.9583 295.633 37.0859V35.7383C293.784 36.5586 291.785 36.9688 289.637 36.9688C288.4 36.9688 287.234 36.7799 286.141 36.4023C285.047 36.0247 284.057 35.4714 283.172 34.7422C282.299 34.013 281.603 33.056 281.082 31.8711C280.574 30.6732 280.32 29.3255 280.32 27.8281C280.32 26.5911 280.561 25.4128 281.043 24.293C281.525 23.1602 282.176 22.1836 282.996 21.3633C283.816 20.543 284.786 19.8919 285.906 19.4102C287.039 18.9284 288.224 18.6875 289.461 18.6875C291.01 18.6875 292.449 19.0521 293.777 19.7812C295.105 20.4974 296.186 21.474 297.02 22.7109L295.867 23.4727C295.164 22.431 294.246 21.6107 293.113 21.0117C291.993 20.3997 290.776 20.0938 289.461 20.0938C287.326 20.0938 285.503 20.849 283.992 22.3594C282.482 23.8698 281.727 25.6927 281.727 27.8281C281.727 29.1432 281.941 30.3086 282.371 31.3242C282.801 32.3268 283.387 33.1341 284.129 33.7461C284.884 34.3451 285.717 34.8008 286.629 35.1133C287.553 35.4128 288.543 35.5625 289.598 35.5625C291.759 35.5625 293.771 35.1133 295.633 34.2148V27.1055H297.039Z" fill="white" fill-opacity="0.33"/>
<defs>
<filter id="filter0_f_169_497" x="11.6992" y="0.25" width="303.777" height="55.1562" filterUnits="userSpaceOnUse" color-interpolation-filters="sRGB">
<feFlood flood-opacity="0" result="BackgroundImageFix"/>
<feBlend mode="normal" in="SourceGraphic" in2="BackgroundImageFix" result="shape"/>
<feGaussianBlur stdDeviation="5" result="effect1_foregroundBlur_169_497"/>
</filter>
<linearGradient id="paint0_linear_169_497" x1="18.5" y1="29" x2="308" y2="29" gradientUnits="userSpaceOnUse">
<stop stop-color="#FF0000"/>
<stop offset="0.135417" stop-color="#FF8A00"/>
<stop offset="0.276042" stop-color="#FAFF00"/>
<stop offset="0.416667" stop-color="#52FF00"/>
<stop offset="0.567708" stop-color="#00FFC2"/>
<stop offset="0.71875" stop-color="#0047FF"/>
<stop offset="0.859375" stop-color="#7000FF"/>
<stop offset="1" stop-color="#FA00FF"/>
</linearGradient>
<linearGradient id="paint1_linear_169_497" x1="18.5" y1="29" x2="308" y2="29" gradientUnits="userSpaceOnUse">
<stop stop-color="#FF0000"/>
<stop offset="0.135417" stop-color="#FF8A00"/>
<stop offset="0.276042" stop-color="#FAFF00"/>
<stop offset="0.416667" stop-color="#52FF00"/>
<stop offset="0.567708" stop-color="#00FFC2"/>
<stop offset="0.71875" stop-color="#0047FF"/>
<stop offset="0.859375" stop-color="#7000FF"/>
<stop offset="1" stop-color="#FA00FF"/>
</linearGradient>
</defs>
</svg>
