<svg width="115" height="115" viewBox="0 0 115 115" fill="none" xmlns="http://www.w3.org/2000/svg">
<g filter="url(#filter0_f_355_8)">
<path d="M46.8594 55.375H67.2031C70.2969 55.375 72.9062 54.375 75.0312 52.375C77.1875 50.375 78.2656 47.5312 78.2656 43.8438C78.2656 41.125 77.1406 38.6875 74.8906 36.5312C72.6406 34.3438 70.0781 33.25 67.2031 33.25H38.2344V94H34.8594V29.875H67.2031C71.0156 29.875 74.375 31.2969 77.2812 34.1406C80.1875 36.9531 81.6406 40.1875 81.6406 43.8438C81.6406 48.3438 80.2344 51.9531 77.4219 54.6719C74.6094 57.3906 71.2031 58.75 67.2031 58.75H46.8594V55.375ZM46.8594 62.125H67.2031C72.0781 62.125 76.2656 60.4219 79.7656 57.0156C83.2656 53.5781 85.0156 49.1875 85.0156 43.8438C85.0156 39.25 83.2188 35.2188 79.625 31.75C76.0625 28.25 71.9219 26.5 67.2031 26.5H31.4844V94H28.1094V23.125H67.2031C70.9219 23.125 74.4062 24.0781 77.6562 25.9844C80.9375 27.8906 83.5469 30.4531 85.4844 33.6719C87.4219 36.8594 88.3906 40.25 88.3906 43.8438C88.3906 50 86.2969 55.1562 82.1094 59.3125C77.9531 63.4375 72.9844 65.5 67.2031 65.5H46.8594V62.125ZM46.8594 68.875H67.2031C71.5781 68.875 75.6406 67.7969 79.3906 65.6406C83.1406 63.4844 86.1406 60.4844 88.3906 56.6406C90.6406 52.7656 91.7656 48.5 91.7656 43.8438C91.7656 39.625 90.6406 35.6719 88.3906 31.9844C86.1719 28.2656 83.1719 25.2969 79.3906 23.0781C75.6094 20.8594 71.5469 19.75 67.2031 19.75H24.7344V94H21.3594V16.375H67.2031C72.1094 16.375 76.7188 17.6406 81.0312 20.1719C85.3438 22.6719 88.7656 26.0469 91.2969 30.2969C93.8594 34.5156 95.1406 39.0312 95.1406 43.8438C95.1406 49.4062 93.9375 54.2969 91.5312 58.5156C89.1562 62.7344 85.9219 66.0312 81.8281 68.4062L90.5469 94H86.9844L78.6406 70C77.3906 70.5 76.4375 70.8438 75.7812 71.0312L83.6094 94H80.0469L72.4062 71.8281C72.125 71.8906 71.125 72 69.4062 72.1562L76.6719 94H73.1094L65.9375 72.25H62.8906L69.7344 94H66.1719L59.2812 72.25H46.8594V68.875ZM44.9844 94H41.6094V36.625H67.2031C69.2969 36.625 71.0938 37.3438 72.5938 38.7812C74.125 40.1875 74.8906 41.875 74.8906 43.8438C74.8906 49.2812 72.3281 52 67.2031 52H46.8594V48.625H67.2031C68.5469 48.625 69.5938 48.2812 70.3438 47.5938C71.125 46.875 71.5156 45.625 71.5156 43.8438C71.5156 42.75 71.0938 41.8438 70.25 41.125C69.4375 40.375 68.4219 40 67.2031 40H44.9844V94Z" fill="url(#paint0_linear_355_8)"/>
</g>
<path d="M46.8594 55.375H67.2031C70.2969 55.375 72.9062 54.375 75.0312 52.375C77.1875 50.375 78.2656 47.5312 78.2656 43.8438C78.2656 41.125 77.1406 38.6875 74.8906 36.5312C72.6406 34.3438 70.0781 33.25 67.2031 33.25H38.2344V94H34.8594V29.875H67.2031C71.0156 29.875 74.375 31.2969 77.2812 34.1406C80.1875 36.9531 81.6406 40.1875 81.6406 43.8438C81.6406 48.3438 80.2344 51.9531 77.4219 54.6719C74.6094 57.3906 71.2031 58.75 67.2031 58.75H46.8594V55.375ZM46.8594 62.125H67.2031C72.0781 62.125 76.2656 60.4219 79.7656 57.0156C83.2656 53.5781 85.0156 49.1875 85.0156 43.8438C85.0156 39.25 83.2188 35.2188 79.625 31.75C76.0625 28.25 71.9219 26.5 67.2031 26.5H31.4844V94H28.1094V23.125H67.2031C70.9219 23.125 74.4062 24.0781 77.6562 25.9844C80.9375 27.8906 83.5469 30.4531 85.4844 33.6719C87.4219 36.8594 88.3906 40.25 88.3906 43.8438C88.3906 50 86.2969 55.1562 82.1094 59.3125C77.9531 63.4375 72.9844 65.5 67.2031 65.5H46.8594V62.125ZM46.8594 68.875H67.2031C71.5781 68.875 75.6406 67.7969 79.3906 65.6406C83.1406 63.4844 86.1406 60.4844 88.3906 56.6406C90.6406 52.7656 91.7656 48.5 91.7656 43.8438C91.7656 39.625 90.6406 35.6719 88.3906 31.9844C86.1719 28.2656 83.1719 25.2969 79.3906 23.0781C75.6094 20.8594 71.5469 19.75 67.2031 19.75H24.7344V94H21.3594V16.375H67.2031C72.1094 16.375 76.7188 17.6406 81.0312 20.1719C85.3438 22.6719 88.7656 26.0469 91.2969 30.2969C93.8594 34.5156 95.1406 39.0312 95.1406 43.8438C95.1406 49.4062 93.9375 54.2969 91.5312 58.5156C89.1562 62.7344 85.9219 66.0312 81.8281 68.4062L90.5469 94H86.9844L78.6406 70C77.3906 70.5 76.4375 70.8438 75.7812 71.0312L83.6094 94H80.0469L72.4062 71.8281C72.125 71.8906 71.125 72 69.4062 72.1562L76.6719 94H73.1094L65.9375 72.25H62.8906L69.7344 94H66.1719L59.2812 72.25H46.8594V68.875ZM44.9844 94H41.6094V36.625H67.2031C69.2969 36.625 71.0938 37.3438 72.5938 38.7812C74.125 40.1875 74.8906 41.875 74.8906 43.8438C74.8906 49.2812 72.3281 52 67.2031 52H46.8594V48.625H67.2031C68.5469 48.625 69.5938 48.2812 70.3438 47.5938C71.125 46.875 71.5156 45.625 71.5156 43.8438C71.5156 42.75 71.0938 41.8438 70.25 41.125C69.4375 40.375 68.4219 40 67.2031 40H44.9844V94Z" fill="url(#paint1_linear_355_8)"/>
<defs>
<filter id="filter0_f_355_8" x="-8.64062" y="-13.625" width="133.781" height="137.625" filterUnits="userSpaceOnUse" color-interpolation-filters="sRGB">
<feFlood flood-opacity="0" result="BackgroundImageFix"/>
<feBlend mode="normal" in="SourceGraphic" in2="BackgroundImageFix" result="shape"/>
<feGaussianBlur stdDeviation="15" result="effect1_foregroundBlur_355_8"/>
</filter>
<linearGradient id="paint0_linear_355_8" x1="22" y1="20" x2="90.0001" y2="93.9999" gradientUnits="userSpaceOnUse">
<stop stop-color="#FF0000"/>
<stop offset="0.135417" stop-color="#FF8A00"/>
<stop offset="0.276042" stop-color="#FAFF00"/>
<stop offset="0.416667" stop-color="#52FF00"/>
<stop offset="0.567708" stop-color="#00FFC2"/>
<stop offset="0.71875" stop-color="#0047FF"/>
<stop offset="0.859375" stop-color="#7000FF"/>
<stop offset="1" stop-color="#FA00FF"/>
</linearGradient>
<linearGradient id="paint1_linear_355_8" x1="22" y1="20" x2="90.0001" y2="93.9999" gradientUnits="userSpaceOnUse">
<stop stop-color="#FF0000"/>
<stop offset="0.135417" stop-color="#FF8A00"/>
<stop offset="0.276042" stop-color="#FAFF00"/>
<stop offset="0.416667" stop-color="#52FF00"/>
<stop offset="0.567708" stop-color="#00FFC2"/>
<stop offset="0.71875" stop-color="#0047FF"/>
<stop offset="0.859375" stop-color="#7000FF"/>
<stop offset="1" stop-color="#FA00FF"/>
</linearGradient>
</defs>
</svg>
