<svg width="512" height="512" viewBox="0 0 512 512" fill="none" xmlns="http://www.w3.org/2000/svg">
<g clip-path="url(#clip0_355_3)">
<g filter="url(#filter0_f_355_3)">
<path d="M221.309 256.59H292.559C303.395 256.59 312.533 253.088 319.976 246.083C327.528 239.079 331.304 229.119 331.304 216.204C331.304 206.682 327.363 198.145 319.483 190.594C311.603 182.932 302.628 179.102 292.559 179.102H191.102V391.867H179.281V167.281H292.559C305.912 167.281 317.677 172.261 327.856 182.221C338.035 192.071 343.124 203.399 343.124 216.204C343.124 231.965 338.199 244.606 328.349 254.128C318.498 263.65 306.568 268.411 292.559 268.411H221.309V256.59ZM221.309 280.231H292.559C309.633 280.231 324.299 274.266 336.557 262.336C348.815 250.297 354.944 234.92 354.944 216.204C354.944 200.115 348.651 185.997 336.065 173.848C323.588 161.59 309.086 155.461 292.559 155.461H167.461V391.867H155.641V143.641H292.559C305.583 143.641 317.787 146.979 329.169 153.655C340.661 160.331 349.8 169.306 356.586 180.579C363.372 191.743 366.765 203.618 366.765 216.204C366.765 237.765 359.432 255.824 344.766 270.381C330.209 284.828 312.807 292.051 292.559 292.051H221.309V280.231ZM221.309 303.872H292.559C307.882 303.872 322.11 300.096 335.244 292.544C348.377 284.992 358.884 274.485 366.765 261.023C374.645 247.451 378.585 232.512 378.585 216.204C378.585 201.429 374.645 187.584 366.765 174.669C358.994 161.645 348.487 151.247 335.244 143.476C322.001 135.706 307.772 131.82 292.559 131.82H143.82V391.867H132V120H292.559C309.742 120 325.886 124.433 340.99 133.298C356.093 142.054 368.078 153.874 376.943 168.759C385.918 183.534 390.405 199.349 390.405 216.204C390.405 235.686 386.191 252.814 377.764 267.59C369.446 282.365 358.118 293.912 343.781 302.23L374.316 391.867H361.839L332.617 307.812C328.239 309.563 324.901 310.767 322.603 311.423L350.019 391.867H337.542L310.782 314.214C309.797 314.433 306.295 314.816 300.275 315.363L325.722 391.867H313.245L288.127 315.692H277.456L301.424 391.867H288.947L264.814 315.692H221.309V303.872ZM214.742 391.867H202.922V190.922H292.559C299.892 190.922 306.185 193.439 311.439 198.474C316.802 203.399 319.483 209.309 319.483 216.204C319.483 235.248 310.509 244.77 292.559 244.77H221.309V232.95H292.559C297.265 232.95 300.932 231.746 303.559 229.338C306.295 226.821 307.663 222.443 307.663 216.204C307.663 212.374 306.185 209.2 303.23 206.682C300.385 204.056 296.828 202.742 292.559 202.742H214.742V391.867Z" fill="url(#paint0_linear_355_3)"/>
</g>
<path d="M221.309 256.59H292.559C303.395 256.59 312.533 253.088 319.976 246.083C327.528 239.079 331.304 229.119 331.304 216.204C331.304 206.682 327.363 198.145 319.483 190.594C311.603 182.932 302.628 179.102 292.559 179.102H191.102V391.867H179.281V167.281H292.559C305.912 167.281 317.677 172.261 327.856 182.221C338.035 192.071 343.124 203.399 343.124 216.204C343.124 231.965 338.199 244.606 328.349 254.128C318.498 263.65 306.568 268.411 292.559 268.411H221.309V256.59ZM221.309 280.231H292.559C309.633 280.231 324.299 274.266 336.557 262.336C348.815 250.297 354.944 234.92 354.944 216.204C354.944 200.115 348.651 185.997 336.065 173.848C323.588 161.59 309.086 155.461 292.559 155.461H167.461V391.867H155.641V143.641H292.559C305.583 143.641 317.787 146.979 329.169 153.655C340.661 160.331 349.8 169.306 356.586 180.579C363.372 191.743 366.765 203.618 366.765 216.204C366.765 237.765 359.432 255.824 344.766 270.381C330.209 284.828 312.807 292.051 292.559 292.051H221.309V280.231ZM221.309 303.872H292.559C307.882 303.872 322.11 300.096 335.244 292.544C348.377 284.992 358.884 274.485 366.765 261.023C374.645 247.451 378.585 232.512 378.585 216.204C378.585 201.429 374.645 187.584 366.765 174.669C358.994 161.645 348.487 151.247 335.244 143.476C322.001 135.706 307.772 131.82 292.559 131.82H143.82V391.867H132V120H292.559C309.742 120 325.886 124.433 340.99 133.298C356.093 142.054 368.078 153.874 376.943 168.759C385.918 183.534 390.405 199.349 390.405 216.204C390.405 235.686 386.191 252.814 377.764 267.59C369.446 282.365 358.118 293.912 343.781 302.23L374.316 391.867H361.839L332.617 307.812C328.239 309.563 324.901 310.767 322.603 311.423L350.019 391.867H337.542L310.782 314.214C309.797 314.433 306.295 314.816 300.275 315.363L325.722 391.867H313.245L288.127 315.692H277.456L301.424 391.867H288.947L264.814 315.692H221.309V303.872ZM214.742 391.867H202.922V190.922H292.559C299.892 190.922 306.185 193.439 311.439 198.474C316.802 203.399 319.483 209.309 319.483 216.204C319.483 235.248 310.509 244.77 292.559 244.77H221.309V232.95H292.559C297.265 232.95 300.932 231.746 303.559 229.338C306.295 226.821 307.663 222.443 307.663 216.204C307.663 212.374 306.185 209.2 303.23 206.682C300.385 204.056 296.828 202.742 292.559 202.742H214.742V391.867Z" fill="url(#paint1_linear_355_3)"/>
</g>
<defs>
<filter id="filter0_f_355_3" x="-18" y="-30" width="558.404" height="571.867" filterUnits="userSpaceOnUse" color-interpolation-filters="sRGB">
<feFlood flood-opacity="0" result="BackgroundImageFix"/>
<feBlend mode="normal" in="SourceGraphic" in2="BackgroundImageFix" result="shape"/>
<feGaussianBlur stdDeviation="75" result="effect1_foregroundBlur_355_3"/>
</filter>
<linearGradient id="paint0_linear_355_3" x1="137.91" y1="131.856" x2="368.409" y2="391.867" gradientUnits="userSpaceOnUse">
<stop stop-color="#FF0000"/>
<stop offset="0.135417" stop-color="#FF8A00"/>
<stop offset="0.276042" stop-color="#FAFF00"/>
<stop offset="0.416667" stop-color="#52FF00"/>
<stop offset="0.567708" stop-color="#00FFC2"/>
<stop offset="0.71875" stop-color="#0047FF"/>
<stop offset="0.859375" stop-color="#7000FF"/>
<stop offset="1" stop-color="#FA00FF"/>
</linearGradient>
<linearGradient id="paint1_linear_355_3" x1="134.548" y1="121.769" x2="371.772" y2="391.867" gradientUnits="userSpaceOnUse">
<stop stop-color="#FF0000"/>
<stop offset="0.135417" stop-color="#FF8A00"/>
<stop offset="0.276042" stop-color="#FAFF00"/>
<stop offset="0.416667" stop-color="#52FF00"/>
<stop offset="0.567708" stop-color="#00FFC2"/>
<stop offset="0.71875" stop-color="#0047FF"/>
<stop offset="0.859375" stop-color="#7000FF"/>
<stop offset="1" stop-color="#FA00FF"/>
</linearGradient>
<clipPath id="clip0_355_3">
<rect width="512" height="512" fill="white"/>
</clipPath>
</defs>
</svg>
