<svg width="328" height="47" viewBox="0 0 328 47" fill="none" xmlns="http://www.w3.org/2000/svg">
<path d="M28.3242 21.9062H36.8008C38.0898 21.9062 39.1771 21.4896 40.0625 20.6562C40.9609 19.8229 41.4102 18.638 41.4102 17.1016C41.4102 15.9688 40.9414 14.9531 40.0039 14.0547C39.0664 13.1432 37.9987 12.6875 36.8008 12.6875H24.7305V38H23.3242V11.2812H36.8008C38.3893 11.2812 39.7891 11.8737 41 13.0586C42.2109 14.2305 42.8164 15.5781 42.8164 17.1016C42.8164 18.9766 42.2305 20.4805 41.0586 21.6133C39.8867 22.7461 38.4674 23.3125 36.8008 23.3125H28.3242V21.9062ZM28.3242 24.7188H36.8008C38.832 24.7188 40.5768 24.0091 42.0352 22.5898C43.4935 21.1576 44.2227 19.3281 44.2227 17.1016C44.2227 15.1875 43.474 13.5078 41.9766 12.0625C40.4922 10.6042 38.7669 9.875 36.8008 9.875H21.918V38H20.5117V8.46875H36.8008C38.3503 8.46875 39.8021 8.86589 41.1562 9.66016C42.5234 10.4544 43.6107 11.5221 44.418 12.8633C45.2253 14.1914 45.6289 15.6042 45.6289 17.1016C45.6289 19.6667 44.7565 21.8151 43.0117 23.5469C41.2799 25.2656 39.2096 26.125 36.8008 26.125H28.3242V24.7188ZM28.3242 27.5312H36.8008C38.6237 27.5312 40.3164 27.082 41.8789 26.1836C43.4414 25.2852 44.6914 24.0352 45.6289 22.4336C46.5664 20.819 47.0352 19.0417 47.0352 17.1016C47.0352 15.3438 46.5664 13.6966 45.6289 12.1602C44.7044 10.6107 43.4544 9.3737 41.8789 8.44922C40.3034 7.52474 38.6107 7.0625 36.8008 7.0625H19.1055V38H17.6992V5.65625H36.8008C38.8451 5.65625 40.7656 6.18359 42.5625 7.23828C44.3594 8.27995 45.7852 9.6862 46.8398 11.457C47.9076 13.2148 48.4414 15.0964 48.4414 17.1016C48.4414 19.4193 47.9401 21.457 46.9375 23.2148C45.9479 24.9727 44.6003 26.3464 42.8945 27.3359L46.5273 38H45.043L41.5664 28C41.0456 28.2083 40.6484 28.3516 40.375 28.4297L43.6367 38H42.1523L38.9688 28.7617C38.8516 28.7878 38.4349 28.8333 37.7188 28.8984L40.7461 38H39.2617L36.2734 28.9375H35.0039L37.8555 38H36.3711L33.5 28.9375H28.3242V27.5312ZM27.543 38H26.1367V14.0938H36.8008C37.6732 14.0938 38.4219 14.3932 39.0469 14.9922C39.6849 15.5781 40.0039 16.2812 40.0039 17.1016C40.0039 19.3672 38.9362 20.5 36.8008 20.5H28.3242V19.0938H36.8008C37.3607 19.0938 37.7969 18.9505 38.1094 18.6641C38.4349 18.3646 38.5977 17.8438 38.5977 17.1016C38.5977 16.6458 38.4219 16.2682 38.0703 15.9688C37.7318 15.6562 37.3086 15.5 36.8008 15.5H27.543V38ZM58.4805 38H57.0742V5.65625H58.4805V38ZM55.668 38H54.2617V5.65625H55.668V38ZM52.8555 38H51.4492V5.65625H52.8555V38ZM61.293 30.9688H76.2539V32.375H61.293V33.7812H76.2539V35.1875H61.293V36.5938H76.2539V38H59.8867V5.65625H76.2539V7.0625H61.293V8.46875H76.2539V9.875H61.293V11.2812H76.2539V12.6875H61.293V18.3125H68.9688V19.7188H61.293V21.125H68.9688V22.5312H61.293V23.9375H68.9688V25.3438H61.293V30.9688ZM79.1055 7.0625V5.65625H100.199V7.0625H79.1055ZM79.1055 9.875V8.46875H100.199V9.875H79.1055ZM79.1055 12.6875V11.2812H100.199V12.6875H94.5742V38H93.168V12.6875H91.7617V38H90.3555V12.6875H88.9492V38H87.543V12.6875H86.1367V38H84.7305V12.6875H79.1055ZM114.027 21.9062H122.504C123.793 21.9062 124.88 21.4896 125.766 20.6562C126.664 19.8229 127.113 18.638 127.113 17.1016C127.113 15.9688 126.645 14.9531 125.707 14.0547C124.77 13.1432 123.702 12.6875 122.504 12.6875H110.434V38H109.027V11.2812H122.504C124.092 11.2812 125.492 11.8737 126.703 13.0586C127.914 14.2305 128.52 15.5781 128.52 17.1016C128.52 18.9766 127.934 20.4805 126.762 21.6133C125.59 22.7461 124.171 23.3125 122.504 23.3125H114.027V21.9062ZM114.027 24.7188H122.504C124.535 24.7188 126.28 24.0091 127.738 22.5898C129.197 21.1576 129.926 19.3281 129.926 17.1016C129.926 15.1875 129.177 13.5078 127.68 12.0625C126.195 10.6042 124.47 9.875 122.504 9.875H107.621V38H106.215V8.46875H122.504C124.053 8.46875 125.505 8.86589 126.859 9.66016C128.227 10.4544 129.314 11.5221 130.121 12.8633C130.928 14.1914 131.332 15.6042 131.332 17.1016C131.332 19.6667 130.46 21.8151 128.715 23.5469C126.983 25.2656 124.913 26.125 122.504 26.125H114.027V24.7188ZM114.027 27.5312H122.504C124.327 27.5312 126.02 27.082 127.582 26.1836C129.145 25.2852 130.395 24.0352 131.332 22.4336C132.27 20.819 132.738 19.0417 132.738 17.1016C132.738 15.3438 132.27 13.6966 131.332 12.1602C130.408 10.6107 129.158 9.3737 127.582 8.44922C126.007 7.52474 124.314 7.0625 122.504 7.0625H104.809V38H103.402V5.65625H122.504C124.548 5.65625 126.469 6.18359 128.266 7.23828C130.062 8.27995 131.488 9.6862 132.543 11.457C133.611 13.2148 134.145 15.0964 134.145 17.1016C134.145 19.4193 133.643 21.457 132.641 23.2148C131.651 24.9727 130.303 26.3464 128.598 27.3359L132.23 38H130.746L127.27 28C126.749 28.2083 126.352 28.3516 126.078 28.4297L129.34 38H127.855L124.672 28.7617C124.555 28.7878 124.138 28.8333 123.422 28.8984L126.449 38H124.965L121.977 28.9375H120.707L123.559 38H122.074L119.203 28.9375H114.027V27.5312ZM113.246 38H111.84V14.0938H122.504C123.376 14.0938 124.125 14.3932 124.75 14.9922C125.388 15.5781 125.707 16.2812 125.707 17.1016C125.707 19.3672 124.639 20.5 122.504 20.5H114.027V19.0938H122.504C123.064 19.0938 123.5 18.9505 123.812 18.6641C124.138 18.3646 124.301 17.8438 124.301 17.1016C124.301 16.6458 124.125 16.2682 123.773 15.9688C123.435 15.6562 123.012 15.5 122.504 15.5H113.246V38ZM144.164 16.3594C142.654 17.8698 141.898 19.6927 141.898 21.8281C141.898 23.9635 142.654 25.7865 144.164 27.2969C145.674 28.8073 147.497 29.5625 149.633 29.5625C151.768 29.5625 153.591 28.8073 155.102 27.2969C156.612 25.7865 157.367 23.9635 157.367 21.8281C157.367 19.6927 156.612 17.8698 155.102 16.3594C153.591 14.849 151.768 14.0938 149.633 14.0938C147.497 14.0938 145.674 14.849 144.164 16.3594ZM141.215 25.3828C140.733 24.25 140.492 23.0651 140.492 21.8281C140.492 20.5911 140.733 19.4128 141.215 18.293C141.697 17.1602 142.348 16.1836 143.168 15.3633C143.988 14.543 144.958 13.8919 146.078 13.4102C147.211 12.9284 148.396 12.6875 149.633 12.6875C150.87 12.6875 152.048 12.9284 153.168 13.4102C154.301 13.8919 155.277 14.543 156.098 15.3633C156.918 16.1836 157.569 17.1602 158.051 18.293C158.533 19.4128 158.773 20.5911 158.773 21.8281C158.773 23.0651 158.533 24.25 158.051 25.3828C157.569 26.5026 156.918 27.4727 156.098 28.293C155.277 29.1133 154.301 29.7643 153.168 30.2461C152.048 30.7279 150.87 30.9688 149.633 30.9688C148.396 30.9688 147.211 30.7279 146.078 30.2461C144.958 29.7643 143.988 29.1133 143.168 28.293C142.348 27.4727 141.697 26.5026 141.215 25.3828ZM140.492 16.5352C139.555 18.1497 139.086 19.9141 139.086 21.8281C139.086 23.7422 139.555 25.5065 140.492 27.1211C141.443 28.7357 142.725 30.0182 144.34 30.9688C145.954 31.9062 147.719 32.375 149.633 32.375C151.547 32.375 153.311 31.9062 154.926 30.9688C156.54 30.0182 157.816 28.7357 158.754 27.1211C159.704 25.5065 160.18 23.7422 160.18 21.8281C160.18 19.9141 159.704 18.1497 158.754 16.5352C157.816 14.9206 156.54 13.6445 154.926 12.707C153.311 11.7565 151.547 11.2812 149.633 11.2812C147.719 11.2812 145.954 11.7565 144.34 12.707C142.725 13.6445 141.443 14.9206 140.492 16.5352ZM139.281 27.8242C138.214 25.9883 137.68 23.9896 137.68 21.8281C137.68 19.6667 138.214 17.668 139.281 15.832C140.349 13.9961 141.801 12.5443 143.637 11.4766C145.473 10.4089 147.471 9.875 149.633 9.875C151.794 9.875 153.793 10.4089 155.629 11.4766C157.465 12.5443 158.917 13.9961 159.984 15.832C161.052 17.668 161.586 19.6667 161.586 21.8281C161.586 23.9896 161.052 25.9883 159.984 27.8242C158.917 29.6602 157.465 31.112 155.629 32.1797C153.793 33.2474 151.794 33.7812 149.633 33.7812C147.471 33.7812 145.473 33.2474 143.637 32.1797C141.801 31.112 140.349 29.6602 139.281 27.8242ZM137.328 16.6328C136.625 18.2865 136.273 20.0182 136.273 21.8281C136.273 23.638 136.625 25.3698 137.328 27.0234C138.031 28.6771 138.975 30.1029 140.16 31.3008C141.358 32.4857 142.784 33.4297 144.438 34.1328C146.091 34.8359 147.823 35.1875 149.633 35.1875C151.443 35.1875 153.174 34.8359 154.828 34.1328C156.482 33.4297 157.901 32.4857 159.086 31.3008C160.284 30.1029 161.234 28.6771 161.938 27.0234C162.641 25.3698 162.992 23.638 162.992 21.8281C162.992 20.0182 162.641 18.2865 161.938 16.6328C161.234 14.9792 160.284 13.5599 159.086 12.375C157.901 11.1771 156.482 10.2266 154.828 9.52344C153.174 8.82031 151.443 8.46875 149.633 8.46875C147.823 8.46875 146.091 8.82031 144.438 9.52344C142.784 10.2266 141.358 11.1771 140.16 12.375C138.975 13.5599 138.031 14.9792 137.328 16.6328ZM136.84 29.2305C135.525 26.9648 134.867 24.4974 134.867 21.8281C134.867 19.1589 135.525 16.6914 136.84 14.4258C138.168 12.1602 139.965 10.3698 142.23 9.05469C144.496 7.72656 146.964 7.0625 149.633 7.0625C152.302 7.0625 154.77 7.72656 157.035 9.05469C159.301 10.3698 161.091 12.1602 162.406 14.4258C163.734 16.6914 164.398 19.1589 164.398 21.8281C164.398 24.4974 163.734 26.9648 162.406 29.2305C161.091 31.4961 159.301 33.293 157.035 34.6211C154.77 35.9362 152.302 36.5938 149.633 36.5938C146.964 36.5938 144.496 35.9362 142.23 34.6211C139.965 33.293 138.168 31.4961 136.84 29.2305ZM134.73 15.5586C133.884 17.5508 133.461 19.6406 133.461 21.8281C133.461 24.0156 133.884 26.112 134.73 28.1172C135.59 30.1094 136.742 31.8281 138.188 33.2734C139.633 34.7188 141.352 35.8711 143.344 36.7305C145.349 37.5768 147.445 38 149.633 38C151.82 38 153.91 37.5768 155.902 36.7305C157.908 35.8711 159.633 34.7188 161.078 33.2734C162.523 31.8281 163.669 30.1094 164.516 28.1172C165.375 26.112 165.805 24.0156 165.805 21.8281C165.805 19.6406 165.375 17.5508 164.516 15.5586C163.669 13.5534 162.523 11.8281 161.078 10.3828C159.633 8.9375 157.908 7.79167 155.902 6.94531C153.91 6.08594 151.82 5.65625 149.633 5.65625C147.445 5.65625 145.349 6.08594 143.344 6.94531C141.352 7.79167 139.633 8.9375 138.188 10.3828C136.742 11.8281 135.59 13.5534 134.73 15.5586ZM133.441 28.6641C132.517 26.4896 132.055 24.2109 132.055 21.8281C132.055 19.4453 132.517 17.1732 133.441 15.0117C134.379 12.8372 135.629 10.9688 137.191 9.40625C138.767 7.83073 140.635 6.58073 142.797 5.65625C144.971 4.71875 147.25 4.25 149.633 4.25C152.016 4.25 154.288 4.71875 156.449 5.65625C158.624 6.58073 160.492 7.83073 162.055 9.40625C163.63 10.9688 164.88 12.8372 165.805 15.0117C166.742 17.1732 167.211 19.4453 167.211 21.8281C167.211 24.2109 166.742 26.4896 165.805 28.6641C164.88 30.8255 163.63 32.694 162.055 34.2695C160.492 35.832 158.624 37.0755 156.449 38C154.288 38.9375 152.016 39.4062 149.633 39.4062C147.25 39.4062 144.971 38.9375 142.797 38C140.635 37.0755 138.767 35.832 137.191 34.2695C135.629 32.694 134.379 30.8255 133.441 28.6641ZM181.059 22.6875H189.223C190.564 22.6875 191.697 22.2383 192.621 21.3398C193.559 20.4284 194.027 19.1458 194.027 17.4922C194.027 16.2552 193.539 15.1484 192.562 14.1719C191.586 13.1823 190.473 12.6875 189.223 12.6875H177.152V38H175.746V11.2812H189.223C190.863 11.2812 192.309 11.9128 193.559 13.1758C194.809 14.4388 195.434 15.8776 195.434 17.4922C195.434 19.4844 194.828 21.0859 193.617 22.2969C192.406 23.4948 190.941 24.0938 189.223 24.0938H181.059V22.6875ZM181.059 25.5H189.223C190.577 25.5 191.827 25.1745 192.973 24.5234C194.132 23.8594 195.062 22.9089 195.766 21.6719C196.482 20.4349 196.84 19.0417 196.84 17.4922C196.84 15.487 196.072 13.7161 194.535 12.1797C193.012 10.6432 191.241 9.875 189.223 9.875H174.34V38H172.934V8.46875H189.223C190.798 8.46875 192.283 8.88542 193.676 9.71875C195.069 10.5521 196.176 11.6654 196.996 13.0586C197.829 14.4518 198.246 15.9297 198.246 17.4922C198.246 19.263 197.829 20.8776 196.996 22.3359C196.163 23.7812 195.056 24.9076 193.676 25.7148C192.309 26.5091 190.824 26.9062 189.223 26.9062H181.059V25.5ZM181.059 28.3125H189.223C190.616 28.3125 191.951 28.0391 193.227 27.4922C194.503 26.9323 195.609 26.1836 196.547 25.2461C197.497 24.2956 198.253 23.1497 198.812 21.8086C199.372 20.4544 199.652 19.0156 199.652 17.4922C199.652 15.6693 199.177 13.957 198.227 12.3555C197.276 10.7409 195.993 9.45833 194.379 8.50781C192.777 7.54427 191.059 7.0625 189.223 7.0625H171.527V38H170.121V5.65625H189.223C191.306 5.65625 193.259 6.20312 195.082 7.29688C196.905 8.3776 198.357 9.82943 199.438 11.6523C200.518 13.4753 201.059 15.4219 201.059 17.4922C201.059 19.3411 200.74 21.0469 200.102 22.6094C199.464 24.1589 198.604 25.4479 197.523 26.4766C196.443 27.5052 195.186 28.306 193.754 28.8789C192.322 29.4388 190.811 29.7188 189.223 29.7188H181.059V28.3125ZM179.965 38H178.559V14.0938H189.223C190.147 14.0938 190.941 14.4323 191.605 15.1094C192.283 15.7865 192.621 16.5807 192.621 17.4922C192.621 20.0182 191.488 21.2812 189.223 21.2812H181.059V19.875H189.223C189.848 19.875 190.336 19.6992 190.688 19.3477C191.039 18.9961 191.215 18.3776 191.215 17.4922C191.215 16.9193 191.02 16.444 190.629 16.0664C190.251 15.6888 189.783 15.5 189.223 15.5H179.965V38ZM215.531 16.3594C214.021 17.8698 213.266 19.6927 213.266 21.8281C213.266 23.9635 214.021 25.7865 215.531 27.2969C217.042 28.8073 218.865 29.5625 221 29.5625C223.135 29.5625 224.958 28.8073 226.469 27.2969C227.979 25.7865 228.734 23.9635 228.734 21.8281C228.734 19.6927 227.979 17.8698 226.469 16.3594C224.958 14.849 223.135 14.0938 221 14.0938C218.865 14.0938 217.042 14.849 215.531 16.3594ZM212.582 25.3828C212.1 24.25 211.859 23.0651 211.859 21.8281C211.859 20.5911 212.1 19.4128 212.582 18.293C213.064 17.1602 213.715 16.1836 214.535 15.3633C215.355 14.543 216.326 13.8919 217.445 13.4102C218.578 12.9284 219.763 12.6875 221 12.6875C222.237 12.6875 223.415 12.9284 224.535 13.4102C225.668 13.8919 226.645 14.543 227.465 15.3633C228.285 16.1836 228.936 17.1602 229.418 18.293C229.9 19.4128 230.141 20.5911 230.141 21.8281C230.141 23.0651 229.9 24.25 229.418 25.3828C228.936 26.5026 228.285 27.4727 227.465 28.293C226.645 29.1133 225.668 29.7643 224.535 30.2461C223.415 30.7279 222.237 30.9688 221 30.9688C219.763 30.9688 218.578 30.7279 217.445 30.2461C216.326 29.7643 215.355 29.1133 214.535 28.293C213.715 27.4727 213.064 26.5026 212.582 25.3828ZM211.859 16.5352C210.922 18.1497 210.453 19.9141 210.453 21.8281C210.453 23.7422 210.922 25.5065 211.859 27.1211C212.81 28.7357 214.092 30.0182 215.707 30.9688C217.322 31.9062 219.086 32.375 221 32.375C222.914 32.375 224.678 31.9062 226.293 30.9688C227.908 30.0182 229.184 28.7357 230.121 27.1211C231.072 25.5065 231.547 23.7422 231.547 21.8281C231.547 19.9141 231.072 18.1497 230.121 16.5352C229.184 14.9206 227.908 13.6445 226.293 12.707C224.678 11.7565 222.914 11.2812 221 11.2812C219.086 11.2812 217.322 11.7565 215.707 12.707C214.092 13.6445 212.81 14.9206 211.859 16.5352ZM210.648 27.8242C209.581 25.9883 209.047 23.9896 209.047 21.8281C209.047 19.6667 209.581 17.668 210.648 15.832C211.716 13.9961 213.168 12.5443 215.004 11.4766C216.84 10.4089 218.839 9.875 221 9.875C223.161 9.875 225.16 10.4089 226.996 11.4766C228.832 12.5443 230.284 13.9961 231.352 15.832C232.419 17.668 232.953 19.6667 232.953 21.8281C232.953 23.9896 232.419 25.9883 231.352 27.8242C230.284 29.6602 228.832 31.112 226.996 32.1797C225.16 33.2474 223.161 33.7812 221 33.7812C218.839 33.7812 216.84 33.2474 215.004 32.1797C213.168 31.112 211.716 29.6602 210.648 27.8242ZM208.695 16.6328C207.992 18.2865 207.641 20.0182 207.641 21.8281C207.641 23.638 207.992 25.3698 208.695 27.0234C209.398 28.6771 210.342 30.1029 211.527 31.3008C212.725 32.4857 214.151 33.4297 215.805 34.1328C217.458 34.8359 219.19 35.1875 221 35.1875C222.81 35.1875 224.542 34.8359 226.195 34.1328C227.849 33.4297 229.268 32.4857 230.453 31.3008C231.651 30.1029 232.602 28.6771 233.305 27.0234C234.008 25.3698 234.359 23.638 234.359 21.8281C234.359 20.0182 234.008 18.2865 233.305 16.6328C232.602 14.9792 231.651 13.5599 230.453 12.375C229.268 11.1771 227.849 10.2266 226.195 9.52344C224.542 8.82031 222.81 8.46875 221 8.46875C219.19 8.46875 217.458 8.82031 215.805 9.52344C214.151 10.2266 212.725 11.1771 211.527 12.375C210.342 13.5599 209.398 14.9792 208.695 16.6328ZM208.207 29.2305C206.892 26.9648 206.234 24.4974 206.234 21.8281C206.234 19.1589 206.892 16.6914 208.207 14.4258C209.535 12.1602 211.332 10.3698 213.598 9.05469C215.863 7.72656 218.331 7.0625 221 7.0625C223.669 7.0625 226.137 7.72656 228.402 9.05469C230.668 10.3698 232.458 12.1602 233.773 14.4258C235.102 16.6914 235.766 19.1589 235.766 21.8281C235.766 24.4974 235.102 26.9648 233.773 29.2305C232.458 31.4961 230.668 33.293 228.402 34.6211C226.137 35.9362 223.669 36.5938 221 36.5938C218.331 36.5938 215.863 35.9362 213.598 34.6211C211.332 33.293 209.535 31.4961 208.207 29.2305ZM206.098 15.5586C205.251 17.5508 204.828 19.6406 204.828 21.8281C204.828 24.0156 205.251 26.112 206.098 28.1172C206.957 30.1094 208.109 31.8281 209.555 33.2734C211 34.7188 212.719 35.8711 214.711 36.7305C216.716 37.5768 218.812 38 221 38C223.188 38 225.277 37.5768 227.27 36.7305C229.275 35.8711 231 34.7188 232.445 33.2734C233.891 31.8281 235.036 30.1094 235.883 28.1172C236.742 26.112 237.172 24.0156 237.172 21.8281C237.172 19.6406 236.742 17.5508 235.883 15.5586C235.036 13.5534 233.891 11.8281 232.445 10.3828C231 8.9375 229.275 7.79167 227.27 6.94531C225.277 6.08594 223.188 5.65625 221 5.65625C218.812 5.65625 216.716 6.08594 214.711 6.94531C212.719 7.79167 211 8.9375 209.555 10.3828C208.109 11.8281 206.957 13.5534 206.098 15.5586ZM204.809 28.6641C203.884 26.4896 203.422 24.2109 203.422 21.8281C203.422 19.4453 203.884 17.1732 204.809 15.0117C205.746 12.8372 206.996 10.9688 208.559 9.40625C210.134 7.83073 212.003 6.58073 214.164 5.65625C216.339 4.71875 218.617 4.25 221 4.25C223.383 4.25 225.655 4.71875 227.816 5.65625C229.991 6.58073 231.859 7.83073 233.422 9.40625C234.997 10.9688 236.247 12.8372 237.172 15.0117C238.109 17.1732 238.578 19.4453 238.578 21.8281C238.578 24.2109 238.109 26.4896 237.172 28.6641C236.247 30.8255 234.997 32.694 233.422 34.2695C231.859 35.832 229.991 37.0755 227.816 38C225.655 38.9375 223.383 39.4062 221 39.4062C218.617 39.4062 216.339 38.9375 214.164 38C212.003 37.0755 210.134 35.832 208.559 34.2695C206.996 32.694 205.746 30.8255 204.809 28.6641ZM264.457 22.4336L263.051 20.1094V5.65625H264.457V22.4336ZM267.27 27.043L265.863 24.6797V5.65625H267.27V27.043ZM270.082 31.7109L268.676 29.3281V5.65625H270.082V31.7109ZM249.926 21.2227L251.332 23.5469V38H249.926V21.2227ZM247.113 16.6133L248.52 18.9766V38H247.113V16.6133ZM244.301 11.9453L245.707 14.3281V38H244.301V11.9453ZM244.789 5.65625H246.43L266.312 38H264.672L244.789 5.65625ZM248.109 5.65625H249.77L269.633 38H267.953L248.109 5.65625ZM251.41 5.65625H253.051L271.488 35.7148V5.65625H272.895V38C272.895 38 272.341 38 271.234 38L251.41 5.65625ZM242.895 7.94141V38H241.488V5.65625C241.488 5.65625 242.048 5.65625 243.168 5.65625L262.992 38H261.371L242.895 7.94141ZM302.445 21.1055H303.852V38H302.445V21.1055ZM308.07 21.1055H309.477V38H308.07V21.1055ZM305.258 21.1055H306.664V38H305.258V21.1055ZM301.039 21.1055V38C298.565 38.9375 296 39.4062 293.344 39.4062C291.039 39.4062 288.832 38.9831 286.723 38.1367C284.613 37.2904 282.758 36.1185 281.156 34.6211C279.555 33.1107 278.272 31.2487 277.309 29.0352C276.358 26.8086 275.883 24.4062 275.883 21.8281C275.883 19.4453 276.345 17.1732 277.27 15.0117C278.207 12.8372 279.457 10.9688 281.02 9.40625C282.595 7.83073 284.464 6.58073 286.625 5.65625C288.799 4.71875 291.078 4.25 293.461 4.25C296.43 4.25 299.19 4.9401 301.742 6.32031C304.294 7.70052 306.378 9.57552 307.992 11.9453L306.82 12.707C305.336 10.5326 303.415 8.8138 301.059 7.55078C298.715 6.28776 296.182 5.65625 293.461 5.65625C291.273 5.65625 289.177 6.08594 287.172 6.94531C285.18 7.79167 283.461 8.9375 282.016 10.3828C280.57 11.8281 279.418 13.5534 278.559 15.5586C277.712 17.5508 277.289 19.6406 277.289 21.8281C277.289 24.1849 277.725 26.3854 278.598 28.4297C279.483 30.474 280.655 32.1862 282.113 33.5664C283.585 34.9466 285.29 36.0339 287.23 36.8281C289.171 37.6094 291.189 38 293.285 38C295.486 38 297.602 37.6549 299.633 36.9648V35.6172C297.693 36.2682 295.655 36.5938 293.52 36.5938C291.97 36.5938 290.46 36.3789 288.988 35.9492C287.53 35.5065 286.176 34.862 284.926 34.0156C283.689 33.1562 282.602 32.1406 281.664 30.9688C280.74 29.7839 280.01 28.4102 279.477 26.8477C278.956 25.2721 278.695 23.599 278.695 21.8281C278.695 19.1589 279.353 16.6914 280.668 14.4258C281.996 12.1602 283.793 10.3698 286.059 9.05469C288.324 7.72656 290.792 7.0625 293.461 7.0625C295.961 7.0625 298.285 7.64844 300.434 8.82031C302.582 9.97917 304.333 11.5547 305.688 13.5469L304.516 14.3086C303.292 12.5117 301.703 11.0924 299.75 10.0508C297.81 8.99609 295.714 8.46875 293.461 8.46875C291.651 8.46875 289.919 8.82031 288.266 9.52344C286.612 10.2266 285.186 11.1771 283.988 12.375C282.803 13.5599 281.859 14.9792 281.156 16.6328C280.453 18.2865 280.102 20.0182 280.102 21.8281C280.102 23.4557 280.336 24.9857 280.805 26.418C281.286 27.8372 281.944 29.0807 282.777 30.1484C283.624 31.2031 284.607 32.1146 285.727 32.8828C286.846 33.638 288.064 34.2109 289.379 34.6016C290.707 34.9922 292.068 35.1875 293.461 35.1875C295.622 35.1875 297.68 34.8229 299.633 34.0938V32.6875C297.706 33.4297 295.694 33.8008 293.598 33.8008C292.009 33.8008 290.492 33.5339 289.047 33C287.602 32.4531 286.312 31.6849 285.18 30.6953C284.06 29.7057 283.168 28.4427 282.504 26.9062C281.84 25.3698 281.508 23.6771 281.508 21.8281C281.508 19.6667 282.042 17.668 283.109 15.832C284.177 13.9961 285.629 12.5443 287.465 11.4766C289.301 10.4089 291.299 9.875 293.461 9.875C295.479 9.875 297.354 10.3438 299.086 11.2812C300.831 12.2188 302.25 13.4948 303.344 15.1094L302.172 15.8711C301.208 14.4648 299.958 13.3516 298.422 12.5312C296.898 11.6979 295.245 11.2812 293.461 11.2812C291.547 11.2812 289.783 11.7565 288.168 12.707C286.553 13.6445 285.271 14.9206 284.32 16.5352C283.383 18.1497 282.914 19.9141 282.914 21.8281C282.914 23.1562 283.103 24.3932 283.48 25.5391C283.858 26.6849 284.379 27.6745 285.043 28.5078C285.707 29.3411 286.482 30.0508 287.367 30.6367C288.266 31.2227 289.229 31.6654 290.258 31.9648C291.286 32.2513 292.354 32.3945 293.461 32.3945C295.661 32.3945 297.719 31.9583 299.633 31.0859V29.7383C297.784 30.5586 295.785 30.9688 293.637 30.9688C292.4 30.9688 291.234 30.7799 290.141 30.4023C289.047 30.0247 288.057 29.4714 287.172 28.7422C286.299 28.013 285.603 27.056 285.082 25.8711C284.574 24.6732 284.32 23.3255 284.32 21.8281C284.32 20.5911 284.561 19.4128 285.043 18.293C285.525 17.1602 286.176 16.1836 286.996 15.3633C287.816 14.543 288.786 13.8919 289.906 13.4102C291.039 12.9284 292.224 12.6875 293.461 12.6875C295.01 12.6875 296.449 13.0521 297.777 13.7812C299.105 14.4974 300.186 15.474 301.02 16.7109L299.867 17.4727C299.164 16.431 298.246 15.6107 297.113 15.0117C295.993 14.3997 294.776 14.0938 293.461 14.0938C291.326 14.0938 289.503 14.849 287.992 16.3594C286.482 17.8698 285.727 19.6927 285.727 21.8281C285.727 23.1432 285.941 24.3086 286.371 25.3242C286.801 26.3268 287.387 27.1341 288.129 27.7461C288.884 28.3451 289.717 28.8008 290.629 29.1133C291.553 29.4128 292.543 29.5625 293.598 29.5625C295.759 29.5625 297.771 29.1133 299.633 28.2148V21.1055H301.039Z" fill="white"/>
<path d="M29.3242 22.9062H37.8008C39.0898 22.9062 40.1771 22.4896 41.0625 21.6562C41.9609 20.8229 42.4102 19.638 42.4102 18.1016C42.4102 16.9688 41.9414 15.9531 41.0039 15.0547C40.0664 14.1432 38.9987 13.6875 37.8008 13.6875H25.7305V39H24.3242V12.2812H37.8008C39.3893 12.2812 40.7891 12.8737 42 14.0586C43.2109 15.2305 43.8164 16.5781 43.8164 18.1016C43.8164 19.9766 43.2305 21.4805 42.0586 22.6133C40.8867 23.7461 39.4674 24.3125 37.8008 24.3125H29.3242V22.9062ZM29.3242 25.7188H37.8008C39.832 25.7188 41.5768 25.0091 43.0352 23.5898C44.4935 22.1576 45.2227 20.3281 45.2227 18.1016C45.2227 16.1875 44.474 14.5078 42.9766 13.0625C41.4922 11.6042 39.7669 10.875 37.8008 10.875H22.918V39H21.5117V9.46875H37.8008C39.3503 9.46875 40.8021 9.86589 42.1562 10.6602C43.5234 11.4544 44.6107 12.5221 45.418 13.8633C46.2253 15.1914 46.6289 16.6042 46.6289 18.1016C46.6289 20.6667 45.7565 22.8151 44.0117 24.5469C42.2799 26.2656 40.2096 27.125 37.8008 27.125H29.3242V25.7188ZM29.3242 28.5312H37.8008C39.6237 28.5312 41.3164 28.082 42.8789 27.1836C44.4414 26.2852 45.6914 25.0352 46.6289 23.4336C47.5664 21.819 48.0352 20.0417 48.0352 18.1016C48.0352 16.3438 47.5664 14.6966 46.6289 13.1602C45.7044 11.6107 44.4544 10.3737 42.8789 9.44922C41.3034 8.52474 39.6107 8.0625 37.8008 8.0625H20.1055V39H18.6992V6.65625H37.8008C39.8451 6.65625 41.7656 7.18359 43.5625 8.23828C45.3594 9.27995 46.7852 10.6862 47.8398 12.457C48.9076 14.2148 49.4414 16.0964 49.4414 18.1016C49.4414 20.4193 48.9401 22.457 47.9375 24.2148C46.9479 25.9727 45.6003 27.3464 43.8945 28.3359L47.5273 39H46.043L42.5664 29C42.0456 29.2083 41.6484 29.3516 41.375 29.4297L44.6367 39H43.1523L39.9688 29.7617C39.8516 29.7878 39.4349 29.8333 38.7188 29.8984L41.7461 39H40.2617L37.2734 29.9375H36.0039L38.8555 39H37.3711L34.5 29.9375H29.3242V28.5312ZM28.543 39H27.1367V15.0938H37.8008C38.6732 15.0938 39.4219 15.3932 40.0469 15.9922C40.6849 16.5781 41.0039 17.2812 41.0039 18.1016C41.0039 20.3672 39.9362 21.5 37.8008 21.5H29.3242V20.0938H37.8008C38.3607 20.0938 38.7969 19.9505 39.1094 19.6641C39.4349 19.3646 39.5977 18.8438 39.5977 18.1016C39.5977 17.6458 39.4219 17.2682 39.0703 16.9688C38.7318 16.6562 38.3086 16.5 37.8008 16.5H28.543V39ZM59.4805 39H58.0742V6.65625H59.4805V39ZM56.668 39H55.2617V6.65625H56.668V39ZM53.8555 39H52.4492V6.65625H53.8555V39ZM62.293 31.9688H77.2539V33.375H62.293V34.7812H77.2539V36.1875H62.293V37.5938H77.2539V39H60.8867V6.65625H77.2539V8.0625H62.293V9.46875H77.2539V10.875H62.293V12.2812H77.2539V13.6875H62.293V19.3125H69.9688V20.7188H62.293V22.125H69.9688V23.5312H62.293V24.9375H69.9688V26.3438H62.293V31.9688ZM80.1055 8.0625V6.65625H101.199V8.0625H80.1055ZM80.1055 10.875V9.46875H101.199V10.875H80.1055ZM80.1055 13.6875V12.2812H101.199V13.6875H95.5742V39H94.168V13.6875H92.7617V39H91.3555V13.6875H89.9492V39H88.543V13.6875H87.1367V39H85.7305V13.6875H80.1055ZM115.027 22.9062H123.504C124.793 22.9062 125.88 22.4896 126.766 21.6562C127.664 20.8229 128.113 19.638 128.113 18.1016C128.113 16.9688 127.645 15.9531 126.707 15.0547C125.77 14.1432 124.702 13.6875 123.504 13.6875H111.434V39H110.027V12.2812H123.504C125.092 12.2812 126.492 12.8737 127.703 14.0586C128.914 15.2305 129.52 16.5781 129.52 18.1016C129.52 19.9766 128.934 21.4805 127.762 22.6133C126.59 23.7461 125.171 24.3125 123.504 24.3125H115.027V22.9062ZM115.027 25.7188H123.504C125.535 25.7188 127.28 25.0091 128.738 23.5898C130.197 22.1576 130.926 20.3281 130.926 18.1016C130.926 16.1875 130.177 14.5078 128.68 13.0625C127.195 11.6042 125.47 10.875 123.504 10.875H108.621V39H107.215V9.46875H123.504C125.053 9.46875 126.505 9.86589 127.859 10.6602C129.227 11.4544 130.314 12.5221 131.121 13.8633C131.928 15.1914 132.332 16.6042 132.332 18.1016C132.332 20.6667 131.46 22.8151 129.715 24.5469C127.983 26.2656 125.913 27.125 123.504 27.125H115.027V25.7188ZM115.027 28.5312H123.504C125.327 28.5312 127.02 28.082 128.582 27.1836C130.145 26.2852 131.395 25.0352 132.332 23.4336C133.27 21.819 133.738 20.0417 133.738 18.1016C133.738 16.3438 133.27 14.6966 132.332 13.1602C131.408 11.6107 130.158 10.3737 128.582 9.44922C127.007 8.52474 125.314 8.0625 123.504 8.0625H105.809V39H104.402V6.65625H123.504C125.548 6.65625 127.469 7.18359 129.266 8.23828C131.062 9.27995 132.488 10.6862 133.543 12.457C134.611 14.2148 135.145 16.0964 135.145 18.1016C135.145 20.4193 134.643 22.457 133.641 24.2148C132.651 25.9727 131.303 27.3464 129.598 28.3359L133.23 39H131.746L128.27 29C127.749 29.2083 127.352 29.3516 127.078 29.4297L130.34 39H128.855L125.672 29.7617C125.555 29.7878 125.138 29.8333 124.422 29.8984L127.449 39H125.965L122.977 29.9375H121.707L124.559 39H123.074L120.203 29.9375H115.027V28.5312ZM114.246 39H112.84V15.0938H123.504C124.376 15.0938 125.125 15.3932 125.75 15.9922C126.388 16.5781 126.707 17.2812 126.707 18.1016C126.707 20.3672 125.639 21.5 123.504 21.5H115.027V20.0938H123.504C124.064 20.0938 124.5 19.9505 124.812 19.6641C125.138 19.3646 125.301 18.8438 125.301 18.1016C125.301 17.6458 125.125 17.2682 124.773 16.9688C124.435 16.6562 124.012 16.5 123.504 16.5H114.246V39ZM145.164 17.3594C143.654 18.8698 142.898 20.6927 142.898 22.8281C142.898 24.9635 143.654 26.7865 145.164 28.2969C146.674 29.8073 148.497 30.5625 150.633 30.5625C152.768 30.5625 154.591 29.8073 156.102 28.2969C157.612 26.7865 158.367 24.9635 158.367 22.8281C158.367 20.6927 157.612 18.8698 156.102 17.3594C154.591 15.849 152.768 15.0938 150.633 15.0938C148.497 15.0938 146.674 15.849 145.164 17.3594ZM142.215 26.3828C141.733 25.25 141.492 24.0651 141.492 22.8281C141.492 21.5911 141.733 20.4128 142.215 19.293C142.697 18.1602 143.348 17.1836 144.168 16.3633C144.988 15.543 145.958 14.8919 147.078 14.4102C148.211 13.9284 149.396 13.6875 150.633 13.6875C151.87 13.6875 153.048 13.9284 154.168 14.4102C155.301 14.8919 156.277 15.543 157.098 16.3633C157.918 17.1836 158.569 18.1602 159.051 19.293C159.533 20.4128 159.773 21.5911 159.773 22.8281C159.773 24.0651 159.533 25.25 159.051 26.3828C158.569 27.5026 157.918 28.4727 157.098 29.293C156.277 30.1133 155.301 30.7643 154.168 31.2461C153.048 31.7279 151.87 31.9688 150.633 31.9688C149.396 31.9688 148.211 31.7279 147.078 31.2461C145.958 30.7643 144.988 30.1133 144.168 29.293C143.348 28.4727 142.697 27.5026 142.215 26.3828ZM141.492 17.5352C140.555 19.1497 140.086 20.9141 140.086 22.8281C140.086 24.7422 140.555 26.5065 141.492 28.1211C142.443 29.7357 143.725 31.0182 145.34 31.9688C146.954 32.9062 148.719 33.375 150.633 33.375C152.547 33.375 154.311 32.9062 155.926 31.9688C157.54 31.0182 158.816 29.7357 159.754 28.1211C160.704 26.5065 161.18 24.7422 161.18 22.8281C161.18 20.9141 160.704 19.1497 159.754 17.5352C158.816 15.9206 157.54 14.6445 155.926 13.707C154.311 12.7565 152.547 12.2812 150.633 12.2812C148.719 12.2812 146.954 12.7565 145.34 13.707C143.725 14.6445 142.443 15.9206 141.492 17.5352ZM140.281 28.8242C139.214 26.9883 138.68 24.9896 138.68 22.8281C138.68 20.6667 139.214 18.668 140.281 16.832C141.349 14.9961 142.801 13.5443 144.637 12.4766C146.473 11.4089 148.471 10.875 150.633 10.875C152.794 10.875 154.793 11.4089 156.629 12.4766C158.465 13.5443 159.917 14.9961 160.984 16.832C162.052 18.668 162.586 20.6667 162.586 22.8281C162.586 24.9896 162.052 26.9883 160.984 28.8242C159.917 30.6602 158.465 32.112 156.629 33.1797C154.793 34.2474 152.794 34.7812 150.633 34.7812C148.471 34.7812 146.473 34.2474 144.637 33.1797C142.801 32.112 141.349 30.6602 140.281 28.8242ZM138.328 17.6328C137.625 19.2865 137.273 21.0182 137.273 22.8281C137.273 24.638 137.625 26.3698 138.328 28.0234C139.031 29.6771 139.975 31.1029 141.16 32.3008C142.358 33.4857 143.784 34.4297 145.438 35.1328C147.091 35.8359 148.823 36.1875 150.633 36.1875C152.443 36.1875 154.174 35.8359 155.828 35.1328C157.482 34.4297 158.901 33.4857 160.086 32.3008C161.284 31.1029 162.234 29.6771 162.938 28.0234C163.641 26.3698 163.992 24.638 163.992 22.8281C163.992 21.0182 163.641 19.2865 162.938 17.6328C162.234 15.9792 161.284 14.5599 160.086 13.375C158.901 12.1771 157.482 11.2266 155.828 10.5234C154.174 9.82031 152.443 9.46875 150.633 9.46875C148.823 9.46875 147.091 9.82031 145.438 10.5234C143.784 11.2266 142.358 12.1771 141.16 13.375C139.975 14.5599 139.031 15.9792 138.328 17.6328ZM137.84 30.2305C136.525 27.9648 135.867 25.4974 135.867 22.8281C135.867 20.1589 136.525 17.6914 137.84 15.4258C139.168 13.1602 140.965 11.3698 143.23 10.0547C145.496 8.72656 147.964 8.0625 150.633 8.0625C153.302 8.0625 155.77 8.72656 158.035 10.0547C160.301 11.3698 162.091 13.1602 163.406 15.4258C164.734 17.6914 165.398 20.1589 165.398 22.8281C165.398 25.4974 164.734 27.9648 163.406 30.2305C162.091 32.4961 160.301 34.293 158.035 35.6211C155.77 36.9362 153.302 37.5938 150.633 37.5938C147.964 37.5938 145.496 36.9362 143.23 35.6211C140.965 34.293 139.168 32.4961 137.84 30.2305ZM135.73 16.5586C134.884 18.5508 134.461 20.6406 134.461 22.8281C134.461 25.0156 134.884 27.112 135.73 29.1172C136.59 31.1094 137.742 32.8281 139.188 34.2734C140.633 35.7188 142.352 36.8711 144.344 37.7305C146.349 38.5768 148.445 39 150.633 39C152.82 39 154.91 38.5768 156.902 37.7305C158.908 36.8711 160.633 35.7188 162.078 34.2734C163.523 32.8281 164.669 31.1094 165.516 29.1172C166.375 27.112 166.805 25.0156 166.805 22.8281C166.805 20.6406 166.375 18.5508 165.516 16.5586C164.669 14.5534 163.523 12.8281 162.078 11.3828C160.633 9.9375 158.908 8.79167 156.902 7.94531C154.91 7.08594 152.82 6.65625 150.633 6.65625C148.445 6.65625 146.349 7.08594 144.344 7.94531C142.352 8.79167 140.633 9.9375 139.188 11.3828C137.742 12.8281 136.59 14.5534 135.73 16.5586ZM134.441 29.6641C133.517 27.4896 133.055 25.2109 133.055 22.8281C133.055 20.4453 133.517 18.1732 134.441 16.0117C135.379 13.8372 136.629 11.9688 138.191 10.4062C139.767 8.83073 141.635 7.58073 143.797 6.65625C145.971 5.71875 148.25 5.25 150.633 5.25C153.016 5.25 155.288 5.71875 157.449 6.65625C159.624 7.58073 161.492 8.83073 163.055 10.4062C164.63 11.9688 165.88 13.8372 166.805 16.0117C167.742 18.1732 168.211 20.4453 168.211 22.8281C168.211 25.2109 167.742 27.4896 166.805 29.6641C165.88 31.8255 164.63 33.694 163.055 35.2695C161.492 36.832 159.624 38.0755 157.449 39C155.288 39.9375 153.016 40.4062 150.633 40.4062C148.25 40.4062 145.971 39.9375 143.797 39C141.635 38.0755 139.767 36.832 138.191 35.2695C136.629 33.694 135.379 31.8255 134.441 29.6641ZM182.059 23.6875H190.223C191.564 23.6875 192.697 23.2383 193.621 22.3398C194.559 21.4284 195.027 20.1458 195.027 18.4922C195.027 17.2552 194.539 16.1484 193.562 15.1719C192.586 14.1823 191.473 13.6875 190.223 13.6875H178.152V39H176.746V12.2812H190.223C191.863 12.2812 193.309 12.9128 194.559 14.1758C195.809 15.4388 196.434 16.8776 196.434 18.4922C196.434 20.4844 195.828 22.0859 194.617 23.2969C193.406 24.4948 191.941 25.0938 190.223 25.0938H182.059V23.6875ZM182.059 26.5H190.223C191.577 26.5 192.827 26.1745 193.973 25.5234C195.132 24.8594 196.062 23.9089 196.766 22.6719C197.482 21.4349 197.84 20.0417 197.84 18.4922C197.84 16.487 197.072 14.7161 195.535 13.1797C194.012 11.6432 192.241 10.875 190.223 10.875H175.34V39H173.934V9.46875H190.223C191.798 9.46875 193.283 9.88542 194.676 10.7188C196.069 11.5521 197.176 12.6654 197.996 14.0586C198.829 15.4518 199.246 16.9297 199.246 18.4922C199.246 20.263 198.829 21.8776 197.996 23.3359C197.163 24.7812 196.056 25.9076 194.676 26.7148C193.309 27.5091 191.824 27.9062 190.223 27.9062H182.059V26.5ZM182.059 29.3125H190.223C191.616 29.3125 192.951 29.0391 194.227 28.4922C195.503 27.9323 196.609 27.1836 197.547 26.2461C198.497 25.2956 199.253 24.1497 199.812 22.8086C200.372 21.4544 200.652 20.0156 200.652 18.4922C200.652 16.6693 200.177 14.957 199.227 13.3555C198.276 11.7409 196.993 10.4583 195.379 9.50781C193.777 8.54427 192.059 8.0625 190.223 8.0625H172.527V39H171.121V6.65625H190.223C192.306 6.65625 194.259 7.20312 196.082 8.29688C197.905 9.3776 199.357 10.8294 200.438 12.6523C201.518 14.4753 202.059 16.4219 202.059 18.4922C202.059 20.3411 201.74 22.0469 201.102 23.6094C200.464 25.1589 199.604 26.4479 198.523 27.4766C197.443 28.5052 196.186 29.306 194.754 29.8789C193.322 30.4388 191.811 30.7188 190.223 30.7188H182.059V29.3125ZM180.965 39H179.559V15.0938H190.223C191.147 15.0938 191.941 15.4323 192.605 16.1094C193.283 16.7865 193.621 17.5807 193.621 18.4922C193.621 21.0182 192.488 22.2812 190.223 22.2812H182.059V20.875H190.223C190.848 20.875 191.336 20.6992 191.688 20.3477C192.039 19.9961 192.215 19.3776 192.215 18.4922C192.215 17.9193 192.02 17.444 191.629 17.0664C191.251 16.6888 190.783 16.5 190.223 16.5H180.965V39ZM216.531 17.3594C215.021 18.8698 214.266 20.6927 214.266 22.8281C214.266 24.9635 215.021 26.7865 216.531 28.2969C218.042 29.8073 219.865 30.5625 222 30.5625C224.135 30.5625 225.958 29.8073 227.469 28.2969C228.979 26.7865 229.734 24.9635 229.734 22.8281C229.734 20.6927 228.979 18.8698 227.469 17.3594C225.958 15.849 224.135 15.0938 222 15.0938C219.865 15.0938 218.042 15.849 216.531 17.3594ZM213.582 26.3828C213.1 25.25 212.859 24.0651 212.859 22.8281C212.859 21.5911 213.1 20.4128 213.582 19.293C214.064 18.1602 214.715 17.1836 215.535 16.3633C216.355 15.543 217.326 14.8919 218.445 14.4102C219.578 13.9284 220.763 13.6875 222 13.6875C223.237 13.6875 224.415 13.9284 225.535 14.4102C226.668 14.8919 227.645 15.543 228.465 16.3633C229.285 17.1836 229.936 18.1602 230.418 19.293C230.9 20.4128 231.141 21.5911 231.141 22.8281C231.141 24.0651 230.9 25.25 230.418 26.3828C229.936 27.5026 229.285 28.4727 228.465 29.293C227.645 30.1133 226.668 30.7643 225.535 31.2461C224.415 31.7279 223.237 31.9688 222 31.9688C220.763 31.9688 219.578 31.7279 218.445 31.2461C217.326 30.7643 216.355 30.1133 215.535 29.293C214.715 28.4727 214.064 27.5026 213.582 26.3828ZM212.859 17.5352C211.922 19.1497 211.453 20.9141 211.453 22.8281C211.453 24.7422 211.922 26.5065 212.859 28.1211C213.81 29.7357 215.092 31.0182 216.707 31.9688C218.322 32.9062 220.086 33.375 222 33.375C223.914 33.375 225.678 32.9062 227.293 31.9688C228.908 31.0182 230.184 29.7357 231.121 28.1211C232.072 26.5065 232.547 24.7422 232.547 22.8281C232.547 20.9141 232.072 19.1497 231.121 17.5352C230.184 15.9206 228.908 14.6445 227.293 13.707C225.678 12.7565 223.914 12.2812 222 12.2812C220.086 12.2812 218.322 12.7565 216.707 13.707C215.092 14.6445 213.81 15.9206 212.859 17.5352ZM211.648 28.8242C210.581 26.9883 210.047 24.9896 210.047 22.8281C210.047 20.6667 210.581 18.668 211.648 16.832C212.716 14.9961 214.168 13.5443 216.004 12.4766C217.84 11.4089 219.839 10.875 222 10.875C224.161 10.875 226.16 11.4089 227.996 12.4766C229.832 13.5443 231.284 14.9961 232.352 16.832C233.419 18.668 233.953 20.6667 233.953 22.8281C233.953 24.9896 233.419 26.9883 232.352 28.8242C231.284 30.6602 229.832 32.112 227.996 33.1797C226.16 34.2474 224.161 34.7812 222 34.7812C219.839 34.7812 217.84 34.2474 216.004 33.1797C214.168 32.112 212.716 30.6602 211.648 28.8242ZM209.695 17.6328C208.992 19.2865 208.641 21.0182 208.641 22.8281C208.641 24.638 208.992 26.3698 209.695 28.0234C210.398 29.6771 211.342 31.1029 212.527 32.3008C213.725 33.4857 215.151 34.4297 216.805 35.1328C218.458 35.8359 220.19 36.1875 222 36.1875C223.81 36.1875 225.542 35.8359 227.195 35.1328C228.849 34.4297 230.268 33.4857 231.453 32.3008C232.651 31.1029 233.602 29.6771 234.305 28.0234C235.008 26.3698 235.359 24.638 235.359 22.8281C235.359 21.0182 235.008 19.2865 234.305 17.6328C233.602 15.9792 232.651 14.5599 231.453 13.375C230.268 12.1771 228.849 11.2266 227.195 10.5234C225.542 9.82031 223.81 9.46875 222 9.46875C220.19 9.46875 218.458 9.82031 216.805 10.5234C215.151 11.2266 213.725 12.1771 212.527 13.375C211.342 14.5599 210.398 15.9792 209.695 17.6328ZM209.207 30.2305C207.892 27.9648 207.234 25.4974 207.234 22.8281C207.234 20.1589 207.892 17.6914 209.207 15.4258C210.535 13.1602 212.332 11.3698 214.598 10.0547C216.863 8.72656 219.331 8.0625 222 8.0625C224.669 8.0625 227.137 8.72656 229.402 10.0547C231.668 11.3698 233.458 13.1602 234.773 15.4258C236.102 17.6914 236.766 20.1589 236.766 22.8281C236.766 25.4974 236.102 27.9648 234.773 30.2305C233.458 32.4961 231.668 34.293 229.402 35.6211C227.137 36.9362 224.669 37.5938 222 37.5938C219.331 37.5938 216.863 36.9362 214.598 35.6211C212.332 34.293 210.535 32.4961 209.207 30.2305ZM207.098 16.5586C206.251 18.5508 205.828 20.6406 205.828 22.8281C205.828 25.0156 206.251 27.112 207.098 29.1172C207.957 31.1094 209.109 32.8281 210.555 34.2734C212 35.7188 213.719 36.8711 215.711 37.7305C217.716 38.5768 219.812 39 222 39C224.188 39 226.277 38.5768 228.27 37.7305C230.275 36.8711 232 35.7188 233.445 34.2734C234.891 32.8281 236.036 31.1094 236.883 29.1172C237.742 27.112 238.172 25.0156 238.172 22.8281C238.172 20.6406 237.742 18.5508 236.883 16.5586C236.036 14.5534 234.891 12.8281 233.445 11.3828C232 9.9375 230.275 8.79167 228.27 7.94531C226.277 7.08594 224.188 6.65625 222 6.65625C219.812 6.65625 217.716 7.08594 215.711 7.94531C213.719 8.79167 212 9.9375 210.555 11.3828C209.109 12.8281 207.957 14.5534 207.098 16.5586ZM205.809 29.6641C204.884 27.4896 204.422 25.2109 204.422 22.8281C204.422 20.4453 204.884 18.1732 205.809 16.0117C206.746 13.8372 207.996 11.9688 209.559 10.4062C211.134 8.83073 213.003 7.58073 215.164 6.65625C217.339 5.71875 219.617 5.25 222 5.25C224.383 5.25 226.655 5.71875 228.816 6.65625C230.991 7.58073 232.859 8.83073 234.422 10.4062C235.997 11.9688 237.247 13.8372 238.172 16.0117C239.109 18.1732 239.578 20.4453 239.578 22.8281C239.578 25.2109 239.109 27.4896 238.172 29.6641C237.247 31.8255 235.997 33.694 234.422 35.2695C232.859 36.832 230.991 38.0755 228.816 39C226.655 39.9375 224.383 40.4062 222 40.4062C219.617 40.4062 217.339 39.9375 215.164 39C213.003 38.0755 211.134 36.832 209.559 35.2695C207.996 33.694 206.746 31.8255 205.809 29.6641ZM265.457 23.4336L264.051 21.1094V6.65625H265.457V23.4336ZM268.27 28.043L266.863 25.6797V6.65625H268.27V28.043ZM271.082 32.7109L269.676 30.3281V6.65625H271.082V32.7109ZM250.926 22.2227L252.332 24.5469V39H250.926V22.2227ZM248.113 17.6133L249.52 19.9766V39H248.113V17.6133ZM245.301 12.9453L246.707 15.3281V39H245.301V12.9453ZM245.789 6.65625H247.43L267.312 39H265.672L245.789 6.65625ZM249.109 6.65625H250.77L270.633 39H268.953L249.109 6.65625ZM252.41 6.65625H254.051L272.488 36.7148V6.65625H273.895V39C273.895 39 273.341 39 272.234 39L252.41 6.65625ZM243.895 8.94141V39H242.488V6.65625C242.488 6.65625 243.048 6.65625 244.168 6.65625L263.992 39H262.371L243.895 8.94141ZM303.445 22.1055H304.852V39H303.445V22.1055ZM309.07 22.1055H310.477V39H309.07V22.1055ZM306.258 22.1055H307.664V39H306.258V22.1055ZM302.039 22.1055V39C299.565 39.9375 297 40.4062 294.344 40.4062C292.039 40.4062 289.832 39.9831 287.723 39.1367C285.613 38.2904 283.758 37.1185 282.156 35.6211C280.555 34.1107 279.272 32.2487 278.309 30.0352C277.358 27.8086 276.883 25.4062 276.883 22.8281C276.883 20.4453 277.345 18.1732 278.27 16.0117C279.207 13.8372 280.457 11.9688 282.02 10.4062C283.595 8.83073 285.464 7.58073 287.625 6.65625C289.799 5.71875 292.078 5.25 294.461 5.25C297.43 5.25 300.19 5.9401 302.742 7.32031C305.294 8.70052 307.378 10.5755 308.992 12.9453L307.82 13.707C306.336 11.5326 304.415 9.8138 302.059 8.55078C299.715 7.28776 297.182 6.65625 294.461 6.65625C292.273 6.65625 290.177 7.08594 288.172 7.94531C286.18 8.79167 284.461 9.9375 283.016 11.3828C281.57 12.8281 280.418 14.5534 279.559 16.5586C278.712 18.5508 278.289 20.6406 278.289 22.8281C278.289 25.1849 278.725 27.3854 279.598 29.4297C280.483 31.474 281.655 33.1862 283.113 34.5664C284.585 35.9466 286.29 37.0339 288.23 37.8281C290.171 38.6094 292.189 39 294.285 39C296.486 39 298.602 38.6549 300.633 37.9648V36.6172C298.693 37.2682 296.655 37.5938 294.52 37.5938C292.97 37.5938 291.46 37.3789 289.988 36.9492C288.53 36.5065 287.176 35.862 285.926 35.0156C284.689 34.1562 283.602 33.1406 282.664 31.9688C281.74 30.7839 281.01 29.4102 280.477 27.8477C279.956 26.2721 279.695 24.599 279.695 22.8281C279.695 20.1589 280.353 17.6914 281.668 15.4258C282.996 13.1602 284.793 11.3698 287.059 10.0547C289.324 8.72656 291.792 8.0625 294.461 8.0625C296.961 8.0625 299.285 8.64844 301.434 9.82031C303.582 10.9792 305.333 12.5547 306.688 14.5469L305.516 15.3086C304.292 13.5117 302.703 12.0924 300.75 11.0508C298.81 9.99609 296.714 9.46875 294.461 9.46875C292.651 9.46875 290.919 9.82031 289.266 10.5234C287.612 11.2266 286.186 12.1771 284.988 13.375C283.803 14.5599 282.859 15.9792 282.156 17.6328C281.453 19.2865 281.102 21.0182 281.102 22.8281C281.102 24.4557 281.336 25.9857 281.805 27.418C282.286 28.8372 282.944 30.0807 283.777 31.1484C284.624 32.2031 285.607 33.1146 286.727 33.8828C287.846 34.638 289.064 35.2109 290.379 35.6016C291.707 35.9922 293.068 36.1875 294.461 36.1875C296.622 36.1875 298.68 35.8229 300.633 35.0938V33.6875C298.706 34.4297 296.694 34.8008 294.598 34.8008C293.009 34.8008 291.492 34.5339 290.047 34C288.602 33.4531 287.312 32.6849 286.18 31.6953C285.06 30.7057 284.168 29.4427 283.504 27.9062C282.84 26.3698 282.508 24.6771 282.508 22.8281C282.508 20.6667 283.042 18.668 284.109 16.832C285.177 14.9961 286.629 13.5443 288.465 12.4766C290.301 11.4089 292.299 10.875 294.461 10.875C296.479 10.875 298.354 11.3438 300.086 12.2812C301.831 13.2188 303.25 14.4948 304.344 16.1094L303.172 16.8711C302.208 15.4648 300.958 14.3516 299.422 13.5312C297.898 12.6979 296.245 12.2812 294.461 12.2812C292.547 12.2812 290.783 12.7565 289.168 13.707C287.553 14.6445 286.271 15.9206 285.32 17.5352C284.383 19.1497 283.914 20.9141 283.914 22.8281C283.914 24.1562 284.103 25.3932 284.48 26.5391C284.858 27.6849 285.379 28.6745 286.043 29.5078C286.707 30.3411 287.482 31.0508 288.367 31.6367C289.266 32.2227 290.229 32.6654 291.258 32.9648C292.286 33.2513 293.354 33.3945 294.461 33.3945C296.661 33.3945 298.719 32.9583 300.633 32.0859V30.7383C298.784 31.5586 296.785 31.9688 294.637 31.9688C293.4 31.9688 292.234 31.7799 291.141 31.4023C290.047 31.0247 289.057 30.4714 288.172 29.7422C287.299 29.013 286.603 28.056 286.082 26.8711C285.574 25.6732 285.32 24.3255 285.32 22.8281C285.32 21.5911 285.561 20.4128 286.043 19.293C286.525 18.1602 287.176 17.1836 287.996 16.3633C288.816 15.543 289.786 14.8919 290.906 14.4102C292.039 13.9284 293.224 13.6875 294.461 13.6875C296.01 13.6875 297.449 14.0521 298.777 14.7812C300.105 15.4974 301.186 16.474 302.02 17.7109L300.867 18.4727C300.164 17.431 299.246 16.6107 298.113 16.0117C296.993 15.3997 295.776 15.0938 294.461 15.0938C292.326 15.0938 290.503 15.849 288.992 17.3594C287.482 18.8698 286.727 20.6927 286.727 22.8281C286.727 24.1432 286.941 25.3086 287.371 26.3242C287.801 27.3268 288.387 28.1341 289.129 28.7461C289.884 29.3451 290.717 29.8008 291.629 30.1133C292.553 30.4128 293.543 30.5625 294.598 30.5625C296.759 30.5625 298.771 30.1133 300.633 29.2148V22.1055H302.039Z" fill="#FEF63B"/>
</svg>
