<svg width="401" height="59" viewBox="0 0 401 59" fill="none" xmlns="http://www.w3.org/2000/svg">
<path d="M22.7448 32.036H14.4288V36.74H19.8888L27.7008 59H41.1408V47.744H36.2688L32.3208 36.74H37.8648V0.199996H14.4288V5.156H34.0848V32.036H24.5928L31.9008 52.28H37.6128V53.96H30.8088L22.7448 32.036ZM6.70084 0.199996V11.456H7.70884V25.484H6.70084V36.74H7.70884V47.744H6.70084V59H9.30484V0.199996H6.70084ZM10.3128 0.199996V11.456H11.2368V25.484H10.3128V36.74H11.2368V47.744H10.3128V59H12.8328V0.199996H10.3128ZM3.17284 0.199996V11.456H4.09684V25.484H3.17284V36.74H4.09684V47.744H3.17284V59H5.69284V0.199996H3.17284ZM0.484844 59H2.08084V0.199996H0.484844V59ZM32.3208 6.92H14.4288V11.456H28.1208V25.484H14.4288V31.196H32.3208V6.92ZM56.0863 0.199996V11.456H57.0103V23.804H56.0863V35.06H57.0103V47.744H56.0863V59H58.6063V0.199996H56.0863ZM52.4743 0.199996V11.456H53.4823V23.804H52.4743V35.06H53.4823V47.744H52.4743V59H55.0783V0.199996H52.4743ZM48.9463 0.199996V11.456H49.8703V23.804H48.9463V35.06H49.8703V47.744H48.9463V59H51.4663V0.199996H48.9463ZM46.2583 59H47.8543V0.199996H46.2583V59ZM60.2023 0.199996V5.156H79.9423V18.008H83.7223V0.199996H60.2023ZM60.2023 6.92V11.456H73.9783V18.008H78.1783V6.92H60.2023ZM60.2023 23.804V29.516H77.4223V30.356H60.2023V35.06H80.8663V23.804H60.2023ZM81.6223 41.192V54.044H60.2023V59H85.4023V41.192H81.6223ZM75.6583 41.192V47.744H60.2023V52.28H79.8583V41.192H75.6583ZM113.909 0.199996V11.456H114.833V59H116.429V0.199996H113.909ZM110.297 0.199996V11.456H111.221V59H112.817V0.199996H110.297ZM106.685 0.199996V11.456H107.609V59H109.205V0.199996H106.685ZM104.081 59H105.677V0.199996H104.081V59ZM102.485 0.199996H89.8851V5.156H102.485V0.199996ZM130.709 0.199996H118.025V5.156H130.709V0.199996ZM102.485 6.92H89.8011V11.456H102.485V6.92ZM130.709 6.92H118.025V11.456H130.709V6.92ZM157.112 32.036H148.796V36.74H154.256L162.068 59H175.508V47.744H170.636L166.688 36.74H172.232V0.199996H148.796V5.156H168.452V32.036H158.96L166.268 52.28H171.98V53.96H165.176L157.112 32.036ZM141.068 0.199996V11.456H142.076V25.484H141.068V36.74H142.076V47.744H141.068V59H143.672V0.199996H141.068ZM144.68 0.199996V11.456H145.604V25.484H144.68V36.74H145.604V47.744H144.68V59H147.2V0.199996H144.68ZM137.54 0.199996V11.456H138.464V25.484H137.54V36.74H138.464V47.744H137.54V59H140.06V0.199996H137.54ZM134.852 59H136.448V0.199996H134.852V59ZM166.688 6.92H148.796V11.456H162.488V25.484H148.796V31.196H166.688V6.92ZM194.569 0.199996V5.156H215.569V54.044H194.569V59H219.349V0.199996H194.569ZM190.453 0.199996V11.456H191.377V47.744H190.453V59H192.973V0.199996H190.453ZM186.841 0.199996V11.456H187.849V47.744H186.841V59H189.445V0.199996H186.841ZM183.313 0.199996V11.456H184.237V47.744H183.313V59H185.833V0.199996H183.313ZM180.625 59H182.221V0.199996H180.625V59ZM194.569 6.92V11.456H209.689V47.744H194.569V52.28H213.889V6.92H194.569ZM238.456 0.199996V5.156H258.112V32.036H238.456V36.74H261.892V0.199996H238.456ZM230.728 0.199996V11.456H231.736V25.484H230.728V36.74H231.736V47.744H230.728V59H233.332V0.199996H230.728ZM227.2 0.199996V11.456H228.124V25.484H227.2V36.74H228.124V47.744H227.2V59H229.72V0.199996H227.2ZM234.34 0.199996V11.456H235.264V25.484H234.34V36.74H235.264V47.744H234.34V59H236.86V0.199996H234.34ZM224.512 59H226.108V0.199996H224.512V59ZM256.348 6.92H238.456V11.456H252.148V25.484H238.456V31.196H256.432L256.348 6.92ZM280.948 0.199996V5.156H301.948V54.044H280.948V59H305.728V0.199996H280.948ZM276.832 0.199996V11.456H277.756V47.744H276.832V59H279.352V0.199996H276.832ZM273.22 0.199996V11.456H274.228V47.744H273.22V59H275.824V0.199996H273.22ZM269.692 0.199996V11.456H270.616V47.744H269.692V59H272.212V0.199996H269.692ZM267.004 59H268.6V0.199996H267.004V59ZM280.948 6.92V11.456H296.068V47.744H280.948V52.28H300.268V6.92H280.948ZM348.187 0.199996V47.744H346.087L335.251 0.199996H324.835V5.156H331.807L342.643 52.28H352.387V5.996H354.151V54.044H341.131L330.379 6.92H324.835V11.456H327.103L337.855 59H357.931V0.199996H348.187ZM320.719 0.199996V11.456H321.643V47.744H320.719V59H323.239V0.199996H320.719ZM317.107 0.199996V11.456H318.115V47.744H317.107V59H319.711V0.199996H317.107ZM313.579 0.199996V11.456H314.503V47.744H313.579V59H316.099V0.199996H313.579ZM310.891 59H312.487V0.199996H310.891V59ZM377.007 0.199996V5.156H396.747V18.008H400.527V0.199996H377.007ZM363.063 59H364.659V0.199996H363.063V59ZM372.891 0.199996V11.456H373.815V23.804H372.891V35.06H373.815V47.744H372.891V59H375.411V0.199996H372.891ZM365.751 0.199996V11.456H366.675V23.804H365.751V35.06H366.675V47.744H365.751V59H368.271V0.199996H365.751ZM369.279 0.199996V11.456H370.287V23.804H369.279V35.06H370.287V47.744H369.279V59H371.883V0.199996H369.279ZM377.007 6.92V11.456H390.783V18.008H394.983V6.92H377.007ZM382.887 23.804V29.516H396.747V54.044H377.007V59H400.527V23.804H382.887ZM382.887 30.356V35.06H390.783V47.744H377.007V52.28H394.983V30.356H382.887Z" fill="white"/>
</svg>
